<svg width="32" height="32" viewBox="0 0 32 32" fill="none" xmlns="http://www.w3.org/2000/svg">
<rect x="2.66669" y="2.66666" width="26.6667" height="26.6667" fill="#FF26BE"/>
<rect x="3.61908" y="3.61905" width="24.7619" height="24.7619" fill="#2E001F"/>
<path d="M16.5454 22.4825L13.3012 15.9973L16.3995 9.50513C16.4579 9.40695 16.4229 9.33331 16.3295 9.33331H14.4499C14.3374 9.33331 14.2894 9.40938 14.2398 9.49286L12.0918 14.4019L9.88534 9.48058C9.83864 9.37013 9.79194 9.34559 9.6752 9.34559H7.66724C7.59719 9.34559 7.52715 9.41922 7.59719 9.5174L10.6909 15.9973L7.46287 22.4947C7.4045 22.5684 7.41617 22.6666 7.53291 22.6666H9.45915C9.55255 22.6666 9.61092 22.6297 9.66929 22.5316L11.94 17.4455L14.1989 22.5193C14.2573 22.642 14.3156 22.6666 14.444 22.6666H16.4753C16.5687 22.6666 16.6038 22.5806 16.5454 22.4825Z" fill="#FF26BE"/>
<path fill-rule="evenodd" clip-rule="evenodd" d="M21.828 12.6957C18.9562 12.6957 17.1467 14.9293 17.1467 17.7888C17.1467 21.1269 18.9335 22.6788 21.4668 22.6666C22.4475 22.6666 23.4974 22.5383 24.4781 22.0474C24.5481 22.0106 24.5714 21.986 24.5714 21.9124C24.5131 21.4583 24.5131 21.041 24.5131 20.7097V9.44347C24.5131 9.3821 24.4897 9.34529 24.3963 9.34529H22.5518C22.4934 9.34529 22.4351 9.39438 22.4351 9.46801V12.7202C22.2016 12.6957 22.0732 12.6957 21.828 12.6957ZM21.758 14.5243C22.0381 14.5243 22.2716 14.5734 22.4351 14.647V20.7219C22.2133 20.8201 21.9097 20.8569 21.6295 20.8569C20.3104 20.8569 19.2597 19.9488 19.2597 17.6906C19.2597 15.7147 20.287 14.5243 21.758 14.5243Z" fill="#FF26BE"/>
</svg>
