<svg width="28" height="32" viewBox="0 0 28 32" fill="none" xmlns="http://www.w3.org/2000/svg">
<g clip-path="url(#clip0_531_92)">
<path d="M27.1411 9.9072C27.1511 9.4486 27.0407 8.99539 26.8206 8.59288C26.5926 8.20381 26.2639 7.88343 25.8691 7.66548C22.369 5.64462 18.8678 3.62659 15.3654 1.61138C14.4222 1.06606 13.5081 1.0854 12.5711 1.63918C11.1782 2.45776 4.20269 6.45877 2.1242 7.66427C1.26813 8.16001 0.852194 8.91935 0.852194 9.90599V22.094C0.84336 22.5429 0.949499 22.9866 1.16052 23.3829C1.38865 23.7839 1.72349 24.1137 2.12782 24.3357C4.20632 25.5449 11.183 29.541 12.5759 30.3632C13.513 30.917 14.4271 30.9364 15.3714 30.391C18.8706 28.3694 22.3719 26.3505 25.8751 24.3345C26.2794 24.1125 26.6143 23.7827 26.8424 23.3817C27.0534 22.9854 27.1596 22.5417 27.1507 22.0928V9.9072H27.1411Z" fill="#004482"/>
<path d="M27.1434 22.094C27.1525 22.5429 27.0464 22.9867 26.8351 23.3829C26.7832 23.4773 26.7246 23.5678 26.6598 23.6538L13.9966 16L25.869 7.66548C26.2635 7.88351 26.5918 8.20389 26.8194 8.59288C27.0404 8.99507 27.1513 9.44843 27.141 9.90721C27.1434 13.9699 27.1434 22.094 27.1434 22.094Z" fill="#00599C"/>
<path d="M26.8194 8.59288L1.15684 23.3829C0.946756 22.9868 0.841451 22.5435 0.85093 22.0952V9.90599C0.85093 8.91935 1.26808 8.16001 2.12293 7.66427C4.20263 6.45877 11.1781 2.45776 12.5722 1.63677C13.5069 1.08299 14.4222 1.06364 15.3653 1.60896C18.8645 3.63062 22.3658 5.64946 25.869 7.66548C26.2634 7.8835 26.5918 8.20389 26.8194 8.59288Z" fill="#659AD2"/>
<path d="M14.5044 20.9236C13.6402 20.9248 12.7917 20.6939 12.0472 20.2552C11.3028 19.8164 10.6899 19.1857 10.2724 18.4291C10.2297 18.3534 10.1894 18.276 10.1515 18.197C9.63645 17.1333 9.52935 15.9176 9.85049 14.7802C10.1716 13.6428 10.8987 12.6626 11.894 12.0254C12.8894 11.3881 14.0838 11.1379 15.2512 11.3222C16.4186 11.5066 17.4779 12.1126 18.2285 13.0255C18.2926 13.1029 18.3494 13.1839 18.4135 13.2674C18.4425 13.3073 18.4715 13.3472 18.4981 13.3883L22.7385 10.9458C22.6353 10.7798 22.5273 10.6186 22.4145 10.4622C22.3552 10.3788 22.2936 10.299 22.2355 10.2204C20.7617 8.30568 18.6238 7.01279 16.2437 6.5967C13.8635 6.18061 11.4139 6.67152 9.37783 7.97261C7.3418 9.2737 5.86723 11.2905 5.24496 13.6253C4.62269 15.96 4.89789 18.4432 6.01628 20.585C6.05739 20.6624 6.09971 20.7386 6.1372 20.8148C6.95858 22.264 8.14068 23.4762 9.56876 24.3338C10.9968 25.1914 12.6224 25.6652 14.2876 25.7092C15.9528 25.7533 17.6011 25.3661 19.0725 24.5852C20.5439 23.8043 21.7885 22.6562 22.6853 21.2525L18.5392 18.7459C18.1003 19.4153 17.5016 19.9648 16.7972 20.345C16.0928 20.7252 15.3048 20.924 14.5044 20.9236Z" fill="white"/>
</g>
<defs>
<clipPath id="clip0_531_92">
<rect width="27.0464" height="32" fill="white" transform="translate(0.476807)"/>
</clipPath>
</defs>
</svg>
