<svg width="24" height="24" viewBox="0 0 24 24" fill="none" xmlns="http://www.w3.org/2000/svg">
<path fill-rule="evenodd" clip-rule="evenodd" d="M12 12C12 10.1591 13.567 8.66667 15.5 8.66667C17.433 8.66667 19 10.1591 19 12C19 13.8409 17.433 15.3333 15.5 15.3333C13.567 15.3333 12 13.8409 12 12Z" fill="#1ABCFE"/>
<path fill-rule="evenodd" clip-rule="evenodd" d="M5 18.6667C5 16.8257 6.567 15.3333 8.5 15.3333H12V18.6667C12 20.5076 10.433 22 8.5 22C6.567 22 5 20.5076 5 18.6667Z" fill="#0ACF83"/>
<path fill-rule="evenodd" clip-rule="evenodd" d="M12 2V8.66667H15.5C17.433 8.66667 19 7.17428 19 5.33333C19 3.49238 17.433 2 15.5 2H12Z" fill="#FF7262"/>
<path fill-rule="evenodd" clip-rule="evenodd" d="M5 5.33333C5 7.17428 6.567 8.66667 8.5 8.66667H12V2H8.5C6.567 2 5 3.49238 5 5.33333Z" fill="#F24E1E"/>
<path fill-rule="evenodd" clip-rule="evenodd" d="M5 12C5 13.8409 6.567 15.3333 8.5 15.3333H12V8.66667H8.5C6.567 8.66667 5 10.1591 5 12Z" fill="#A259FF"/>
</svg>
