<svg width="24" height="24" viewBox="0 0 24 24" fill="none" xmlns="http://www.w3.org/2000/svg">
<path d="M22 12C22 17.52 17.525 22 12 22C6.475 22 2 17.52 2 12C2 6.475 6.475 2 12 2C17.525 2 22 6.475 22 12Z" fill="#E95420"/>
<path d="M5.44396 10.6831C4.72275 10.6831 4.14286 11.2761 4.14286 12.0025C4.14286 12.7289 4.72762 13.3219 5.44396 13.3219C6.1603 13.3219 6.74506 12.7289 6.74506 12.0025C6.74506 11.2711 6.1603 10.6831 5.44396 10.6831ZM14.7369 16.6773C14.1131 17.043 13.9036 17.8485 14.2593 18.481C14.6199 19.1136 15.4142 19.331 16.038 18.9653C16.6617 18.5996 16.8712 17.7941 16.5155 17.1616C16.15 16.534 15.3557 16.3166 14.7369 16.6773ZM8.27033 12.0025C8.27033 10.6979 8.90869 9.54646 9.88818 8.84969L8.93793 7.23376C7.79764 8.00466 6.9546 9.18572 6.59887 10.5645C7.00821 10.9054 7.27135 11.4243 7.27135 12.0025C7.27135 12.5807 7.00821 13.0995 6.59887 13.4405C6.94973 14.8192 7.79764 16.0003 8.93793 16.7712L9.88818 15.1553C8.90869 14.4585 8.27033 13.3071 8.27033 12.0025ZM12.0713 8.14797C14.0595 8.14797 15.6871 9.68977 15.8577 11.6615L17.7143 11.6319C17.6217 10.179 16.9979 8.8744 16.0331 7.91571C15.536 8.10349 14.9659 8.07384 14.4737 7.78723C13.9767 7.49567 13.6697 7.01138 13.5819 6.47768C13.0995 6.34426 12.5927 6.27013 12.0713 6.27013C11.1698 6.27013 10.3219 6.48262 9.56656 6.86313L10.4729 8.50377C10.9554 8.27645 11.5012 8.14797 12.0713 8.14797ZM12.0713 15.857C11.5012 15.857 10.9554 15.7285 10.4681 15.5012L9.56168 17.1418C10.317 17.5223 11.1698 17.7348 12.0664 17.7348C12.5878 17.7348 13.0946 17.6607 13.5771 17.5273C13.6599 16.9985 13.9718 16.5093 14.4688 16.2177C14.961 15.9262 15.536 15.9015 16.0282 16.0892C16.9882 15.1306 17.6168 13.826 17.7094 12.3731L15.8528 12.3435C15.6871 14.3102 14.0595 15.857 12.0713 15.857ZM14.732 7.32271C15.3557 7.68839 16.15 7.47096 16.5106 6.83842C16.8712 6.20589 16.6568 5.40039 16.0331 5.03471C15.4093 4.66903 14.615 4.88646 14.2544 5.519C13.8987 6.15153 14.1131 6.95702 14.732 7.32271Z" fill="white"/>
</svg>
