<svg width="32" height="32" viewBox="0 0 32 32" fill="none" xmlns="http://www.w3.org/2000/svg">
<path d="M14.7267 4.16034L15.4202 5.46288C15.5761 5.70324 15.745 5.916 15.944 6.11414C16.5273 6.69016 17.0709 7.30493 17.5713 7.95426C18.7464 9.49717 19.5389 11.2106 20.1049 13.0637C20.4444 14.1957 20.6287 15.357 20.6425 16.5312C20.6994 20.0417 19.4959 23.056 17.0695 25.5612C16.6748 25.9585 16.2484 26.323 15.7946 26.651C15.5542 26.651 15.4405 26.4667 15.3414 26.297C15.161 25.9822 15.0409 25.6366 14.9874 25.2778C14.9021 24.8531 14.8461 24.4284 14.8737 23.9899V23.7918C14.8542 23.7495 14.6422 4.26022 14.7267 4.16034Z" fill="#599636"/>
<path d="M14.7268 4.11731C14.6984 4.06046 14.6699 4.1035 14.6415 4.13111C14.6553 4.41533 14.5562 4.66869 14.4011 4.91069C14.2306 5.15105 14.0049 5.33539 13.7783 5.53353C12.5196 6.62331 11.5289 7.93965 10.7355 9.41191C9.67985 11.3933 9.13578 13.5168 8.98149 15.7524C8.91084 16.5588 9.23647 19.4042 9.49065 20.2252C10.1841 22.4048 11.4298 24.2311 13.0434 25.8162C13.4397 26.1979 13.8636 26.552 14.3021 26.8922C14.4296 26.8922 14.4434 26.7785 14.4726 26.6941C14.5285 26.5134 14.5711 26.3288 14.6001 26.1419L14.8843 24.0192L14.7268 4.11731Z" fill="#6CAC48"/>
<path d="M15.4202 27.5134C15.4486 27.1886 15.6045 26.919 15.7743 26.6502C15.6037 26.5796 15.477 26.4391 15.378 26.2823C15.2925 26.134 15.2218 25.9776 15.1668 25.8154C14.9687 25.221 14.9265 24.5973 14.8696 23.9899V23.6221C14.799 23.6789 14.7844 24.1596 14.7844 24.2311C14.743 24.8731 14.6578 25.5115 14.5294 26.1419C14.4872 26.3968 14.4587 26.651 14.302 26.8776C14.302 26.906 14.302 26.9344 14.3158 26.9767C14.5708 27.727 14.6406 28.4911 14.6837 29.2699V29.5541C14.6837 29.8936 14.6699 29.8221 14.9516 29.9358C15.0653 29.978 15.192 29.9926 15.3057 30.0771C15.391 30.0771 15.4048 30.0064 15.4048 29.9496L15.3625 29.4827V28.1801C15.3487 27.9527 15.391 27.727 15.4194 27.5142L15.4202 27.5134Z" fill="#C2BFBF"/>
</svg>
