<svg width="30" height="32" viewBox="0 0 30 32" fill="none" xmlns="http://www.w3.org/2000/svg">
<path d="M13.2204 0.406245C14.0104 -0.0459533 15.0394 -0.0479958 15.8287 0.406245C19.7998 2.6501 23.7721 4.89044 27.7425 7.13566C28.4892 7.55632 28.9888 8.38741 28.9811 9.24789V22.7478C28.9867 23.6439 28.4378 24.4949 27.65 24.906C23.692 27.1375 19.736 29.3717 15.7787 31.6032C14.9723 32.0642 13.9226 32.0287 13.1415 31.5299C11.9549 30.842 10.7662 30.1575 9.5795 29.4703C9.337 29.3257 9.06364 29.2107 8.89241 28.9756C9.04378 28.7715 9.31442 28.7461 9.53434 28.657C10.0297 28.4995 10.4846 28.2467 10.9396 28.0014C11.0547 27.9226 11.1952 27.9528 11.3055 28.0233C12.3202 28.6051 13.3259 29.2037 14.344 29.78C14.5612 29.9054 14.7811 29.7389 14.9667 29.6354C18.8508 27.4402 22.7396 25.2533 26.6229 23.0575C26.7668 22.9883 26.8463 22.8355 26.8347 22.6779C26.8374 18.2246 26.8353 13.7704 26.836 9.31711C26.8525 9.13827 26.749 8.97385 26.5873 8.90066C22.643 6.67938 18.7008 4.4547 14.7571 2.23286C14.6888 2.18588 14.6079 2.16068 14.525 2.16056C14.4421 2.16044 14.361 2.1854 14.2926 2.23217C10.349 4.4547 6.40742 6.68142 2.46381 8.90259C2.30268 8.97589 2.19454 9.13759 2.21371 9.31711C2.21439 13.7704 2.21371 18.2246 2.21371 22.6786C2.20688 22.7555 2.22377 22.8326 2.26211 22.8997C2.30046 22.9667 2.35842 23.0203 2.42818 23.0534C3.48055 23.6502 4.53428 24.2427 5.58733 24.8375C6.18058 25.1568 6.90898 25.3465 7.56259 25.1018C8.13939 24.895 8.5437 24.3064 8.53269 23.694C8.53814 19.2666 8.52997 14.8386 8.53678 10.4119C8.52237 10.2154 8.70881 10.053 8.8999 10.0715C9.40554 10.0681 9.91187 10.0647 10.4175 10.0729C10.6286 10.0681 10.7738 10.2797 10.7477 10.4777C10.7457 14.9331 10.7532 19.3886 10.7443 23.844C10.7457 25.0314 10.2579 26.3234 9.15953 26.9044C7.80645 27.6053 6.13405 27.4567 4.79732 26.7846C3.6401 26.207 2.53576 25.5253 1.39908 24.9066C0.609175 24.4977 0.0630188 23.6434 0.0685791 22.7479V9.24789C0.0602954 8.36959 0.579671 7.52341 1.34971 7.10888C5.30705 4.87558 9.2637 2.64057 13.2204 0.406245Z" fill="#8CC84B"/>
<path d="M16.6728 9.75773C18.3987 9.64664 20.2464 9.69192 21.7996 10.5422C23.0021 11.1938 23.6687 12.5613 23.69 13.8972C23.6564 14.0774 23.468 14.1768 23.296 14.1644C22.7952 14.1637 22.2943 14.1712 21.7936 14.161C21.5811 14.1692 21.4577 13.9733 21.431 13.7855C21.2871 13.1463 20.9385 12.5133 20.3369 12.2049C19.4133 11.7425 18.3424 11.7658 17.3354 11.7754C16.6001 11.8145 15.8096 11.8781 15.1867 12.3105C14.7085 12.638 14.5633 13.2991 14.7339 13.8315C14.8948 14.2138 15.3361 14.3371 15.6972 14.4508C17.7772 14.9948 19.9814 14.9407 22.0217 15.6566C22.8664 15.9485 23.6927 16.5159 23.9818 17.4003C24.36 18.5856 24.1942 20.0025 23.3509 20.9541C22.667 21.7372 21.6709 22.1634 20.6774 22.3949C19.3558 22.6896 17.9842 22.6971 16.642 22.5662C15.3799 22.4224 14.0666 22.0908 13.0923 21.2309C12.2592 20.5075 11.8522 19.3803 11.8926 18.2924C11.9023 18.1087 12.0852 17.9806 12.2612 17.9957C12.7655 17.9916 13.2698 17.9902 13.774 17.9964C13.9755 17.982 14.1248 18.156 14.1351 18.3459C14.2282 18.9549 14.4571 19.5941 14.9881 19.9552C16.013 20.6164 17.299 20.5711 18.4726 20.5896C19.4449 20.5465 20.5363 20.5334 21.3297 19.8908C21.7483 19.5243 21.8723 18.9111 21.7592 18.3835C21.6366 17.9382 21.1707 17.7306 20.7706 17.5949C18.7173 16.9454 16.4885 17.1811 14.455 16.4465C13.6295 16.1548 12.8312 15.6032 12.514 14.7551C12.0715 13.5547 12.2742 12.07 13.206 11.1505C14.1145 10.2359 15.4259 9.8838 16.6728 9.75773Z" fill="#8CC84B"/>
</svg>
