<svg width="98" height="14" viewBox="0 0 98 14" fill="none" xmlns="http://www.w3.org/2000/svg">
<path d="M1.584 12.324C1.392 12.324 1.224 12.268 1.08 12.156C0.936 12.044 0.864 11.804 0.864 11.436C0.864 11.268 0.924 11 1.044 10.632C1.164 10.264 1.324 9.832 1.524 9.336C1.732 8.832 1.964 8.3 2.22 7.74C2.476 7.18 2.744 6.624 3.024 6.072C3.304 5.52 3.576 5.008 3.84 4.536C4.104 4.064 4.348 3.664 4.572 3.336C4.804 3 4.992 2.776 5.136 2.664C5.344 2.512 5.552 2.436 5.76 2.436C5.872 2.436 5.98 2.448 6.084 2.472C6.196 2.496 6.288 2.536 6.36 2.592C6.528 2.696 6.676 2.896 6.804 3.192C6.94 3.48 7.06 3.828 7.164 4.236C7.276 4.644 7.368 5.084 7.44 5.556C7.52 6.02 7.588 6.48 7.644 6.936C7.948 6.896 8.156 6.876 8.268 6.876C8.508 6.876 8.72 6.912 8.904 6.984C9.088 7.048 9.184 7.184 9.192 7.392C9.208 7.592 9.144 7.76 9 7.896C8.864 8.032 8.688 8.132 8.472 8.196C8.376 8.228 8.144 8.28 7.776 8.352C7.8 8.76 7.812 9.104 7.812 9.384C7.812 10.096 7.772 10.648 7.692 11.04C7.62 11.432 7.524 11.712 7.404 11.88C7.292 12.048 7.172 12.148 7.044 12.18C6.924 12.22 6.816 12.24 6.72 12.24C6.712 12.24 6.704 12.24 6.696 12.24C6.464 12.24 6.292 12.18 6.18 12.06C6.076 11.94 6.024 11.74 6.024 11.46V10.608C6.024 10.344 6.02 10.048 6.012 9.72C6.004 9.392 5.988 9.044 5.964 8.676C5.492 8.756 5.02 8.836 4.548 8.916C4.084 8.988 3.684 9.052 3.348 9.108C3.196 9.468 3.064 9.792 2.952 10.08C2.84 10.36 2.764 10.58 2.724 10.74C2.604 11.132 2.492 11.44 2.388 11.664C2.284 11.88 2.184 12.032 2.088 12.12C2 12.216 1.916 12.272 1.836 12.288C1.756 12.312 1.672 12.324 1.584 12.324ZM4.008 7.632C4.344 7.552 4.668 7.48 4.98 7.416C5.292 7.344 5.588 7.28 5.868 7.224C5.828 6.728 5.78 6.244 5.724 5.772C5.668 5.3 5.604 4.88 5.532 4.512C5.324 4.912 5.08 5.392 4.8 5.952C4.528 6.504 4.264 7.064 4.008 7.632ZM13.2077 12.6C12.4877 12.6 11.9197 12.38 11.5037 11.94C11.0957 11.492 10.8917 10.856 10.8917 10.032C10.8917 9.584 10.9517 9.06 11.0717 8.46C11.1917 7.852 11.3477 7.212 11.5397 6.54C11.7397 5.86 11.9517 5.188 12.1757 4.524C12.4077 3.86 12.6357 3.244 12.8597 2.676C13.0837 2.108 13.2797 1.632 13.4477 1.248C13.5917 0.952 13.7957 0.804 14.0597 0.804C14.2277 0.804 14.3637 0.856 14.4677 0.96C14.5797 1.064 14.6357 1.232 14.6357 1.464C14.6357 1.576 14.5797 1.82 14.4677 2.196C14.3557 2.572 14.2077 3.036 14.0237 3.588C13.8477 4.132 13.6557 4.72 13.4477 5.352C13.2477 5.984 13.0557 6.62 12.8717 7.26C12.6957 7.9 12.5517 8.504 12.4397 9.072C12.3277 9.632 12.2717 10.108 12.2717 10.5C12.2717 10.66 12.3157 10.788 12.4037 10.884C12.4997 10.98 12.6237 11.028 12.7757 11.028C13.1037 11.028 13.4397 10.968 13.7837 10.848C14.1357 10.728 14.4797 10.576 14.8157 10.392C15.1597 10.208 15.4837 10.012 15.7877 9.804C16.0917 9.596 16.3637 9.4 16.6037 9.216C16.8517 9.024 17.0517 8.872 17.2037 8.76C17.4037 8.608 17.5397 8.532 17.6117 8.532C17.8837 8.532 18.0197 8.664 18.0197 8.928C18.0197 8.992 17.9397 9.124 17.7797 9.324C17.6437 9.5 17.4517 9.724 17.2037 9.996C16.9557 10.268 16.6677 10.556 16.3397 10.86C16.0197 11.156 15.6757 11.436 15.3077 11.7C14.9477 11.964 14.5877 12.18 14.2277 12.348C13.8677 12.516 13.5277 12.6 13.2077 12.6ZM18.8984 12.408C18.4024 12.408 18.0024 12.236 17.6984 11.892C17.3944 11.54 17.2424 10.976 17.2424 10.2C17.2424 9.704 17.2984 9.208 17.4104 8.712C17.5304 8.208 17.6944 7.732 17.9024 7.284C18.1184 6.828 18.3664 6.424 18.6464 6.072C18.9344 5.72 19.2504 5.444 19.5944 5.244C19.9384 5.036 20.2944 4.932 20.6624 4.932C21.2864 4.932 21.7744 5.1 22.1264 5.436C22.4784 5.772 22.6544 6.2 22.6544 6.72C22.6544 7.12 22.5424 7.484 22.3184 7.812C22.1024 8.132 21.8064 8.42 21.4304 8.676C21.0544 8.932 20.6344 9.164 20.1704 9.372C19.7064 9.58 19.2304 9.768 18.7424 9.936C18.7024 10.224 18.6824 10.48 18.6824 10.704C18.6824 10.84 18.7584 10.908 18.9104 10.908C19.2704 10.908 19.6544 10.852 20.0624 10.74C20.4784 10.62 20.8984 10.468 21.3224 10.284C21.7464 10.092 22.1544 9.896 22.5464 9.696C22.9384 9.488 23.2944 9.292 23.6144 9.108C23.9424 8.916 24.2104 8.764 24.4184 8.652C24.6344 8.532 24.7744 8.472 24.8384 8.472C25.0144 8.472 25.1424 8.524 25.2224 8.628C25.3024 8.732 25.3424 8.844 25.3424 8.964C25.3424 9.02 25.2344 9.144 25.0184 9.336C24.8104 9.528 24.5224 9.756 24.1544 10.02C23.7944 10.276 23.3864 10.544 22.9304 10.824C22.4824 11.096 22.0144 11.356 21.5264 11.604C21.0464 11.844 20.5784 12.036 20.1224 12.18C19.6744 12.332 19.2664 12.408 18.8984 12.408ZM18.9464 8.868C19.2744 8.676 19.5984 8.476 19.9184 8.268C20.2464 8.052 20.5184 7.812 20.7344 7.548C20.9504 7.276 21.0584 6.96 21.0584 6.6C21.0584 6.496 21.0304 6.428 20.9744 6.396C20.9184 6.356 20.8384 6.336 20.7344 6.336C20.4544 6.336 20.1984 6.46 19.9664 6.708C19.7424 6.956 19.5424 7.276 19.3664 7.668C19.1984 8.052 19.0584 8.452 18.9464 8.868ZM25.0702 11.76C24.8782 11.76 24.7382 11.696 24.6502 11.568C24.5622 11.432 24.5262 11.264 24.5422 11.064C24.5502 10.952 24.6382 10.792 24.8062 10.584C24.9742 10.368 25.1942 10.116 25.4662 9.828C25.7382 9.532 26.0382 9.216 26.3662 8.88C26.7022 8.536 27.0462 8.188 27.3982 7.836C26.9582 7.188 26.6262 6.668 26.4022 6.276C26.1862 5.884 26.0702 5.576 26.0542 5.352C26.0382 5.104 26.0782 4.904 26.1742 4.752C26.2782 4.6 26.4422 4.524 26.6662 4.524C26.7942 4.524 26.9262 4.584 27.0622 4.704C27.2062 4.824 27.3862 5.044 27.6022 5.364C27.8262 5.684 28.1222 6.136 28.4902 6.72C29.0422 6.168 29.4942 5.72 29.8462 5.376C30.2062 5.024 30.4942 4.752 30.7102 4.56C30.9342 4.368 31.1062 4.236 31.2262 4.164C31.3542 4.092 31.4622 4.056 31.5502 4.056C31.7422 4.056 31.8782 4.124 31.9582 4.26C32.0462 4.388 32.0822 4.556 32.0662 4.764C32.0502 4.932 31.9502 5.136 31.7662 5.376C31.5902 5.608 31.3622 5.864 31.0822 6.144C30.8022 6.416 30.4982 6.7 30.1702 6.996C29.8502 7.284 29.5382 7.568 29.2342 7.848C29.7302 8.552 30.1942 9.168 30.6262 9.696C31.0662 10.216 31.4222 10.648 31.6942 10.992C31.9662 11.328 32.1062 11.576 32.1142 11.736C32.1302 11.904 32.0862 12.036 31.9822 12.132C31.8862 12.228 31.7462 12.276 31.5622 12.276C31.4582 12.276 31.3302 12.24 31.1782 12.168C31.0262 12.096 30.8222 11.948 30.5662 11.724C30.3182 11.5 29.9982 11.164 29.6062 10.716C29.2222 10.26 28.7422 9.648 28.1662 8.88C27.8382 9.216 27.5102 9.552 27.1822 9.888C26.8622 10.224 26.5582 10.536 26.2702 10.824C25.9902 11.104 25.7422 11.332 25.5262 11.508C25.3182 11.676 25.1662 11.76 25.0702 11.76ZM34.4812 12.732C34.2492 12.732 34.0652 12.668 33.9292 12.54C33.8012 12.42 33.7372 12.248 33.7372 12.024C33.7372 11.816 33.7932 11.64 33.9052 11.496C34.0172 11.344 34.2332 11.2 34.5532 11.064C34.5772 11.056 34.6012 11.048 34.6252 11.04C34.4252 11 34.2852 10.888 34.2052 10.704C34.1332 10.52 34.0972 10.308 34.0972 10.068C34.0972 9.932 34.1212 9.712 34.1692 9.408C34.2172 9.104 34.2772 8.756 34.3492 8.364C34.4212 7.972 34.4972 7.584 34.5772 7.2C34.6572 6.808 34.7252 6.464 34.7812 6.168C34.9332 5.488 35.1292 4.888 35.3692 4.368C35.6092 3.848 35.9332 3.444 36.3412 3.156C36.7492 2.86 37.2732 2.712 37.9132 2.712C38.4012 2.712 38.8812 2.816 39.3532 3.024C39.8332 3.224 40.2692 3.508 40.6612 3.876C41.0532 4.244 41.3652 4.676 41.5972 5.172C41.8372 5.668 41.9572 6.212 41.9572 6.804C41.9572 7.476 41.6932 8.152 41.1652 8.832C40.6372 9.512 39.8972 10.164 38.9452 10.788C38.0012 11.404 36.8972 11.96 35.6332 12.456C35.4252 12.536 35.2372 12.6 35.0692 12.648C34.9092 12.704 34.7132 12.732 34.4812 12.732ZM35.5132 10.692C36.6732 10.228 37.6092 9.784 38.3212 9.36C39.0332 8.936 39.5492 8.488 39.8692 8.016C40.1972 7.544 40.3612 7.008 40.3612 6.408C40.3612 6.072 40.2492 5.752 40.0252 5.448C39.8012 5.144 39.5132 4.9 39.1612 4.716C38.8092 4.524 38.4372 4.428 38.0452 4.428C37.6212 4.428 37.2812 4.6 37.0252 4.944C36.7692 5.28 36.5652 5.856 36.4132 6.672C36.3412 7 36.2652 7.356 36.1852 7.74C36.1132 8.116 36.0412 8.48 35.9692 8.832C35.9052 9.176 35.8492 9.464 35.8012 9.696C35.7612 9.928 35.7372 10.064 35.7292 10.104C35.6892 10.344 35.6172 10.54 35.5132 10.692ZM45.207 12.408C44.711 12.408 44.311 12.236 44.007 11.892C43.703 11.54 43.551 10.976 43.551 10.2C43.551 9.704 43.607 9.208 43.719 8.712C43.839 8.208 44.003 7.732 44.211 7.284C44.427 6.828 44.675 6.424 44.955 6.072C45.243 5.72 45.559 5.444 45.903 5.244C46.247 5.036 46.603 4.932 46.971 4.932C47.595 4.932 48.083 5.1 48.435 5.436C48.787 5.772 48.963 6.2 48.963 6.72C48.963 7.12 48.851 7.484 48.627 7.812C48.411 8.132 48.115 8.42 47.739 8.676C47.363 8.932 46.943 9.164 46.479 9.372C46.015 9.58 45.539 9.768 45.051 9.936C45.011 10.224 44.991 10.48 44.991 10.704C44.991 10.84 45.067 10.908 45.219 10.908C45.579 10.908 45.963 10.852 46.371 10.74C46.787 10.62 47.207 10.468 47.631 10.284C48.055 10.092 48.463 9.896 48.855 9.696C49.247 9.488 49.603 9.292 49.923 9.108C50.251 8.916 50.519 8.764 50.727 8.652C50.943 8.532 51.083 8.472 51.147 8.472C51.323 8.472 51.451 8.524 51.531 8.628C51.611 8.732 51.651 8.844 51.651 8.964C51.651 9.02 51.543 9.144 51.327 9.336C51.119 9.528 50.831 9.756 50.463 10.02C50.103 10.276 49.695 10.544 49.239 10.824C48.791 11.096 48.323 11.356 47.835 11.604C47.355 11.844 46.887 12.036 46.431 12.18C45.983 12.332 45.575 12.408 45.207 12.408ZM45.255 8.868C45.583 8.676 45.907 8.476 46.227 8.268C46.555 8.052 46.827 7.812 47.043 7.548C47.259 7.276 47.367 6.96 47.367 6.6C47.367 6.496 47.339 6.428 47.283 6.396C47.227 6.356 47.147 6.336 47.043 6.336C46.763 6.336 46.507 6.46 46.275 6.708C46.051 6.956 45.851 7.276 45.675 7.668C45.507 8.052 45.367 8.452 45.255 8.868ZM52.4578 11.988C52.2498 11.988 52.0658 11.888 51.9058 11.688C51.7538 11.488 51.6378 11.18 51.5578 10.764C51.4938 10.412 51.4378 10.012 51.3898 9.564C51.3418 9.116 51.2978 8.676 51.2578 8.244C51.2258 7.804 51.2018 7.42 51.1858 7.092C51.1698 6.764 51.1618 6.54 51.1618 6.42C51.1618 5.988 51.2378 5.632 51.3898 5.352C51.5418 5.064 51.8338 4.92 52.2658 4.92C52.4498 4.92 52.5898 5 52.6858 5.16C52.7818 5.312 52.8298 5.524 52.8298 5.796C52.8298 5.964 52.8298 6.176 52.8298 6.432C52.8378 6.68 52.8458 6.96 52.8538 7.272C52.8618 7.616 52.8698 7.988 52.8778 8.388C52.8938 8.78 52.9018 9.172 52.9018 9.564C53.1818 9.124 53.4818 8.656 53.8018 8.16C54.1218 7.656 54.4338 7.168 54.7378 6.696C55.0498 6.224 55.3298 5.808 55.5778 5.448C55.8258 5.08 56.0138 4.82 56.1418 4.668C56.2538 4.532 56.3898 4.416 56.5498 4.32C56.7098 4.216 56.8778 4.164 57.0538 4.164C57.2458 4.164 57.4058 4.24 57.5338 4.392C57.6618 4.544 57.7258 4.72 57.7258 4.92C57.7258 5.072 57.6938 5.216 57.6298 5.352C57.5738 5.488 57.5018 5.616 57.4138 5.736C57.1738 6.072 56.8898 6.464 56.5618 6.912C56.2418 7.36 55.9058 7.832 55.5538 8.328C55.2018 8.816 54.8578 9.288 54.5218 9.744C54.1938 10.2 53.9018 10.604 53.6458 10.956C53.4378 11.252 53.2698 11.476 53.1418 11.628C53.0138 11.772 52.8978 11.868 52.7938 11.916C52.6978 11.964 52.5858 11.988 52.4578 11.988ZM59.6768 12.468C59.3568 12.468 59.1168 12.38 58.9568 12.204C58.7968 12.028 58.7168 11.848 58.7168 11.664C58.7168 11.448 58.7568 11.284 58.8368 11.172C58.9168 11.06 59.0728 10.976 59.3048 10.92C59.6088 10.856 59.9248 10.776 60.2528 10.68C60.5888 10.584 60.9088 10.484 61.2128 10.38C61.5248 10.268 61.7968 10.156 62.0288 10.044C62.2608 9.924 62.4288 9.812 62.5328 9.708C62.4048 9.636 62.2008 9.552 61.9208 9.456C61.6408 9.352 61.3288 9.232 60.9848 9.096C60.6488 8.952 60.3248 8.784 60.0128 8.592C59.7008 8.4 59.4448 8.176 59.2448 7.92C59.0448 7.664 58.9448 7.372 58.9448 7.044C58.9448 6.588 59.0608 6.16 59.2928 5.76C59.5248 5.36 59.8328 4.988 60.2168 4.644C60.6008 4.3 61.0168 3.984 61.4648 3.696C61.9208 3.408 62.3728 3.148 62.8208 2.916C63.2768 2.676 63.6848 2.464 64.0448 2.28C64.1808 2.2 64.3088 2.148 64.4288 2.124C64.5568 2.092 64.6728 2.076 64.7768 2.076C65.1368 2.076 65.3848 2.164 65.5208 2.34C65.6568 2.516 65.7248 2.696 65.7248 2.88C65.7248 3.008 65.6648 3.16 65.5448 3.336C65.4248 3.504 65.2328 3.66 64.9688 3.804C64.7128 3.948 64.3728 4.052 63.9488 4.116C63.8768 4.124 63.8128 4.132 63.7568 4.14C63.4368 4.3 63.0928 4.492 62.7248 4.716C62.3568 4.94 62.0088 5.176 61.6808 5.424C61.3608 5.664 61.0968 5.904 60.8888 6.144C60.6808 6.384 60.5768 6.6 60.5768 6.792C60.5768 7.008 60.6648 7.204 60.8408 7.38C61.0168 7.548 61.2408 7.704 61.5128 7.848C61.7928 7.984 62.0848 8.116 62.3888 8.244C62.7008 8.372 62.9928 8.504 63.2648 8.64C63.5448 8.768 63.7728 8.912 63.9488 9.072C64.1248 9.232 64.2128 9.412 64.2128 9.612C64.2128 9.884 64.1208 10.144 63.9368 10.392C63.7528 10.64 63.5128 10.872 63.2168 11.088C62.9208 11.296 62.5968 11.484 62.2448 11.652C61.8928 11.82 61.5448 11.964 61.2008 12.084C60.8648 12.212 60.5608 12.308 60.2888 12.372C60.0168 12.436 59.8128 12.468 59.6768 12.468ZM74.5689 5.952C74.5689 6.048 74.5369 6.132 74.4729 6.204C74.4089 6.276 74.3289 6.332 74.2329 6.372C74.0969 6.428 73.8609 6.5 73.5249 6.588C73.1889 6.676 72.7809 6.776 72.3009 6.888C71.8289 7 71.3209 7.116 70.7769 7.236C70.2329 7.348 69.6889 7.456 69.1449 7.56C68.9369 8.328 68.7249 9.12 68.5089 9.936C68.2929 10.744 68.0769 11.54 67.8609 12.324C67.7809 12.604 67.6849 12.816 67.5729 12.96C67.4609 13.112 67.2689 13.188 66.9969 13.188C66.7009 13.188 66.5009 13.092 66.3969 12.9C66.3009 12.716 66.2889 12.464 66.3609 12.144C66.5689 11.272 66.7609 10.46 66.9369 9.708C67.1209 8.956 67.2689 8.348 67.3809 7.884C66.9009 7.964 66.4809 8.028 66.1209 8.076C65.7609 8.116 65.5049 8.132 65.3529 8.124C65.1849 8.108 65.0449 8.04 64.9329 7.92C64.8209 7.8 64.7689 7.652 64.7769 7.476C64.7929 7.316 64.8649 7.18 64.9929 7.068C65.1209 6.948 65.2729 6.876 65.4489 6.852C65.6969 6.828 66.0169 6.792 66.4089 6.744C66.8009 6.696 67.2329 6.64 67.7049 6.576C67.8089 6.168 67.9289 5.748 68.0649 5.316C68.2009 4.876 68.3409 4.456 68.4849 4.056C68.6369 3.648 68.7809 3.292 68.9169 2.988C69.0529 2.684 69.1769 2.464 69.2889 2.328C69.3769 2.224 69.4849 2.144 69.6129 2.088C69.7489 2.032 69.8809 2.004 70.0089 2.004C70.1769 2.004 70.3129 2.064 70.4169 2.184C70.5209 2.304 70.5729 2.444 70.5729 2.604C70.5729 2.668 70.5689 2.736 70.5609 2.808C70.5529 2.872 70.5369 2.936 70.5129 3C70.3609 3.4 70.1969 3.884 70.0209 4.452C69.8529 5.02 69.6769 5.644 69.4929 6.324C70.0929 6.236 70.6809 6.148 71.2569 6.06C71.8409 5.964 72.3689 5.876 72.8409 5.796C73.3209 5.708 73.7049 5.632 73.9929 5.568C74.1529 5.512 74.2889 5.524 74.4009 5.604C74.5129 5.676 74.5689 5.792 74.5689 5.952ZM76.8663 13.54C76.6823 13.54 76.5143 13.464 76.3623 13.312C76.2183 13.168 76.1463 12.924 76.1463 12.58C76.1463 12.324 76.1663 11.968 76.2063 11.512C76.2543 11.048 76.3423 10.452 76.4703 9.724C76.1903 10.3 75.8983 10.812 75.5943 11.26C75.2903 11.708 74.9903 12.06 74.6943 12.316C74.4063 12.564 74.1303 12.688 73.8663 12.688C73.4423 12.688 73.1063 12.56 72.8583 12.304C72.6103 12.04 72.4863 11.548 72.4863 10.828C72.4863 10.484 72.5143 10.096 72.5703 9.664C72.6343 9.232 72.7143 8.8 72.8103 8.368C72.9063 7.936 73.0023 7.552 73.0983 7.216C73.2023 6.872 73.2943 6.616 73.3743 6.448C73.4383 6.304 73.5183 6.192 73.6143 6.112C73.7183 6.032 73.8503 5.992 74.0103 5.992C74.2663 5.992 74.4623 6.076 74.5983 6.244C74.7343 6.412 74.8023 6.584 74.8023 6.76C74.8023 6.896 74.7703 7.092 74.7063 7.348C74.6503 7.604 74.5783 7.888 74.4903 8.2C74.4103 8.512 74.3263 8.832 74.2383 9.16C74.1503 9.488 74.0743 9.796 74.0103 10.084C73.9543 10.372 73.9263 10.616 73.9263 10.816C73.9263 11.064 74.0223 11.188 74.2143 11.188C74.3263 11.188 74.4703 11.08 74.6463 10.864C74.8303 10.648 75.0223 10.36 75.2223 10C75.4303 9.632 75.6383 9.232 75.8463 8.8C76.0623 8.36 76.2583 7.916 76.4343 7.468C76.6183 7.012 76.7743 6.592 76.9023 6.208C76.9823 5.968 77.0903 5.8 77.2263 5.704C77.3623 5.608 77.5183 5.56 77.6943 5.56C77.9663 5.56 78.1743 5.636 78.3183 5.788C78.4703 5.94 78.5463 6.156 78.5463 6.436C78.5463 6.564 78.5263 6.78 78.4863 7.084C78.4463 7.388 78.3943 7.744 78.3303 8.152C78.2743 8.56 78.2063 8.992 78.1263 9.448C78.0463 9.904 77.9663 10.352 77.8863 10.792C77.8143 11.232 77.7423 11.636 77.6703 12.004C77.5983 12.364 77.5383 12.652 77.4903 12.868C77.4103 13.188 77.3143 13.38 77.2023 13.444C77.0903 13.508 76.9783 13.54 76.8663 13.54ZM85.1618 5.58C85.6018 4.532 85.9898 3.452 86.3258 2.34C86.3898 2.116 86.4818 1.944 86.6018 1.824C86.7298 1.704 86.9058 1.644 87.1298 1.644C87.3138 1.644 87.4538 1.7 87.5498 1.812C87.6458 1.916 87.6938 2.06 87.6938 2.244C87.6938 2.396 87.6298 2.668 87.5018 3.06C87.3738 3.444 87.2178 3.932 87.0338 4.524C86.8498 5.116 86.6658 5.8 86.4818 6.576C86.2978 7.352 86.1418 8.204 86.0138 9.132C85.8858 10.06 85.8218 11.052 85.8218 12.108C85.8218 12.396 85.7658 12.632 85.6538 12.816C85.5498 13.008 85.3658 13.104 85.1018 13.104C84.8138 13.104 84.6018 13.004 84.4658 12.804C84.3378 12.604 84.2738 12.348 84.2738 12.036C84.2738 11.42 84.2938 10.908 84.3338 10.5C84.3818 10.084 84.4298 9.728 84.4778 9.432C84.0858 10.104 83.6698 10.684 83.2298 11.172C82.7978 11.652 82.3818 12.02 81.9818 12.276C81.5818 12.54 81.2378 12.672 80.9498 12.672C80.4778 12.672 80.0938 12.54 79.7978 12.276C79.5018 12.012 79.3538 11.612 79.3538 11.076C79.3538 10.66 79.4538 10.232 79.6538 9.792C79.8538 9.344 80.1178 8.904 80.4458 8.472C80.7738 8.04 81.1338 7.636 81.5258 7.26C81.9258 6.876 82.3258 6.54 82.7258 6.252C83.1258 5.956 83.4978 5.724 83.8418 5.556C84.1858 5.388 84.4658 5.304 84.6818 5.304C84.9218 5.304 85.0818 5.396 85.1618 5.58ZM84.8858 6.228C84.8378 6.26 84.7858 6.292 84.7298 6.324C84.6818 6.348 84.6338 6.376 84.5858 6.408C84.2818 6.6 83.9578 6.832 83.6138 7.104C83.2698 7.368 82.9298 7.664 82.5938 7.992C82.2578 8.312 81.9498 8.648 81.6698 9C81.3978 9.344 81.1778 9.688 81.0098 10.032C80.8498 10.368 80.7698 10.692 80.7698 11.004C80.7698 11.06 80.7938 11.1 80.8418 11.124C80.8898 11.148 80.9338 11.16 80.9738 11.16C81.2538 11.16 81.5538 11.036 81.8738 10.788C82.2018 10.54 82.5338 10.196 82.8698 9.756C83.2138 9.308 83.5538 8.784 83.8898 8.184C84.2338 7.584 84.5658 6.932 84.8858 6.228ZM88.9905 12.18C88.7665 12.18 88.5665 12.104 88.3905 11.952C88.2225 11.8 88.1385 11.552 88.1385 11.208C88.1385 11.024 88.1625 10.764 88.2105 10.428C88.2665 10.092 88.3385 9.728 88.4265 9.336C88.5145 8.936 88.6105 8.54 88.7145 8.148C88.8265 7.756 88.9345 7.408 89.0385 7.104C89.1425 6.792 89.2345 6.56 89.3145 6.408C89.4185 6.224 89.5145 6.112 89.6025 6.072C89.6985 6.024 89.7905 6 89.8785 6C90.0385 6 90.1865 6.048 90.3225 6.144C90.4665 6.24 90.5385 6.452 90.5385 6.78C90.5385 6.908 90.5145 7.116 90.4665 7.404C90.4185 7.684 90.3585 8.012 90.2865 8.388C90.2145 8.764 90.1345 9.152 90.0465 9.552C89.9665 9.952 89.8865 10.332 89.8065 10.692C89.7345 11.044 89.6745 11.34 89.6265 11.58C89.5865 11.78 89.5025 11.928 89.3745 12.024C89.2545 12.128 89.1265 12.18 88.9905 12.18ZM90.3705 4.812C90.1065 4.812 89.8625 4.736 89.6385 4.584C89.4145 4.424 89.3025 4.18 89.3025 3.852C89.3025 3.58 89.3705 3.36 89.5065 3.192C89.6425 3.024 89.8025 2.904 89.9865 2.832C90.1785 2.752 90.3465 2.712 90.4905 2.712C90.6345 2.712 90.7945 2.744 90.9705 2.808C91.1465 2.864 91.2985 2.972 91.4265 3.132C91.5625 3.284 91.6305 3.504 91.6305 3.792C91.6305 3.984 91.5625 4.16 91.4265 4.32C91.2905 4.472 91.1225 4.592 90.9225 4.68C90.7305 4.768 90.5465 4.812 90.3705 4.812ZM94.14 12.396C93.572 12.396 93.116 12.196 92.772 11.796C92.428 11.388 92.256 10.844 92.256 10.164C92.256 9.948 92.284 9.728 92.34 9.504C92.404 9.28 92.48 9.072 92.568 8.88C92.52 8.808 92.48 8.716 92.448 8.604C92.424 8.484 92.412 8.344 92.412 8.184C92.412 7.664 92.504 7.188 92.688 6.756C92.872 6.316 93.12 5.936 93.432 5.616C93.744 5.296 94.088 5.048 94.464 4.872C94.84 4.696 95.22 4.608 95.604 4.608C96.26 4.608 96.796 4.828 97.212 5.268C97.636 5.708 97.848 6.392 97.848 7.32C97.848 7.784 97.776 8.256 97.632 8.736C97.488 9.216 97.292 9.676 97.044 10.116C96.804 10.548 96.524 10.936 96.204 11.28C95.892 11.624 95.556 11.896 95.196 12.096C94.844 12.296 94.492 12.396 94.14 12.396ZM93.948 8.34C93.988 8.428 94.008 8.532 94.008 8.652C94.008 8.772 93.984 8.896 93.936 9.024C93.888 9.152 93.84 9.324 93.792 9.54C93.744 9.748 93.72 10.048 93.72 10.44C93.72 10.544 93.732 10.632 93.756 10.704C93.788 10.768 93.856 10.8 93.96 10.8C94.232 10.8 94.488 10.712 94.728 10.536C94.976 10.36 95.196 10.128 95.388 9.84C95.588 9.552 95.756 9.232 95.892 8.88C96.036 8.52 96.144 8.156 96.216 7.788C96.296 7.412 96.336 7.064 96.336 6.744C96.336 6.536 96.296 6.392 96.216 6.312C96.136 6.232 95.996 6.192 95.796 6.192C95.524 6.192 95.244 6.28 94.956 6.456C94.676 6.624 94.44 6.856 94.248 7.152C94.056 7.44 93.96 7.768 93.96 8.136C93.96 8.208 93.956 8.276 93.948 8.34Z" fill="white"/>
</svg>
