<svg width="34" height="34" viewBox="0 0 34 34" fill="none" xmlns="http://www.w3.org/2000/svg">
<path d="M20.9174 12.5452C20.7969 12.492 20.6672 12.4632 20.5355 12.4603L13.4645 12.4603C13.3326 12.4603 13.202 12.4863 13.0802 12.5368C12.9584 12.5872 12.8477 12.6612 12.7545 12.7544C12.5662 12.9427 12.4604 13.1981 12.4604 13.4644C12.4604 13.5963 12.4863 13.7269 12.5368 13.8487C12.5873 13.9705 12.6612 14.0812 12.7545 14.1744C12.9428 14.3627 13.1982 14.4685 13.4645 14.4685L18.1243 14.4615L12.7574 19.8284C12.5698 20.0159 12.4645 20.2703 12.4645 20.5355C12.4645 20.8007 12.5698 21.0551 12.7574 21.2426C12.9449 21.4301 13.1992 21.5355 13.4645 21.5355C13.7297 21.5355 13.984 21.4301 14.1716 21.2426L19.5385 15.8757L19.5314 20.5355C19.5309 20.6675 19.5565 20.7983 19.6068 20.9204C19.657 21.0425 19.731 21.1534 19.8243 21.2467C19.9177 21.3401 20.0286 21.414 20.1506 21.4643C20.2727 21.5145 20.4035 21.5401 20.5355 21.5396C20.6675 21.5401 20.7984 21.5145 20.9204 21.4643C21.0425 21.414 21.1534 21.3401 21.2467 21.2467C21.3401 21.1534 21.414 21.0425 21.4643 20.9204C21.5146 20.7983 21.5402 20.6675 21.5396 20.5355L21.5396 13.4644C21.5368 13.3328 21.5079 13.203 21.4548 13.0826C21.3533 12.8397 21.1602 12.6466 20.9174 12.5452Z" fill="black"/>
</svg>
