<svg xmlns="http://www.w3.org/2000/svg" viewBox="0 0 32 32" id="brush"><path d="M8.5 3a.5.5 0 0 0-.5.5V13h-.5a.5.5 0 0 0-.5.5v3C7 17.879 8.122 19 9.5 19H14v4.775A2.96 2.96 0 0 0 13 26c0 1.654 1.346 3 3 3s3-1.346 3-3c0-.856-.361-1.655-1-2.225V19h4.5c1.378 0 2.5-1.121 2.5-2.5v-3a.5.5 0 0 0-.5-.5H24V3.5a.5.5 0 0 0-.5-.5h-15zM9 4h2v2.5a.5.5 0 0 0 1 0V4h2v5.5a.5.5 0 0 0 1 0V4h2v1.5a.5.5 0 0 0 1 0V4h2v3.5a.5.5 0 0 0 1 0V4h2v9H9V4zm2.5 3.99a.5.5 0 0 0-.5.5.5.5 0 0 0 .5.5.5.5 0 0 0 .5-.5.5.5 0 0 0-.5-.5zM8 14h16v2.5c0 .827-.673 1.5-1.5 1.5h-13c-.827 0-1.5-.673-1.5-1.5V14zm7 5h2v5.012a.5.5 0 0 0 .2.398c.508.384.8.964.8 1.59 0 1.103-.897 2-2 2s-2-.897-2-2c0-.626.292-1.206.8-1.59a.5.5 0 0 0 .2-.398V19zm1 6.5a.5.5 0 0 0-.5.5.5.5 0 0 0 .5.5.5.5 0 0 0 .5-.5.5.5 0 0 0-.5-.5z"></path></svg>