<svg width="29" height="32" viewBox="0 0 29 32" fill="none" xmlns="http://www.w3.org/2000/svg">
<g clip-path="url(#clip0_531_119)">
<path d="M28.3937 9.41239C28.3935 8.87578 28.2787 8.4016 28.0466 7.99464C27.8187 7.59446 27.4773 7.25905 27.0193 6.99385C23.2391 4.81418 19.4553 2.64118 15.6763 0.459286C14.6575 -0.128877 13.6697 -0.107435 12.6585 0.489172C11.1539 1.37653 3.62075 5.69243 1.37597 6.99263C0.45151 7.5278 0.0016665 8.34683 0.0014443 9.41139C0 13.7948 0.0014443 18.1782 0 22.5617C0.0002222 23.0866 0.1101 23.5515 0.331967 23.9524C0.560055 24.3647 0.906243 24.7093 1.37475 24.9805C3.61964 26.2807 11.1538 30.5963 12.6581 31.4839C13.6697 32.0808 14.6575 32.1021 15.6767 31.5137C19.4557 29.3317 23.2398 27.1588 27.0205 24.9792C27.489 24.7081 27.8352 24.3632 28.0633 23.9513C28.2848 23.5504 28.3949 23.0855 28.3952 22.5605C28.3952 22.5605 28.3952 13.796 28.3937 9.41239Z" fill="#5C8DBC"/>
<path d="M14.241 15.9438L0.33197 23.9524C0.560059 24.3647 0.906246 24.7093 1.37475 24.9805C3.61964 26.2807 11.1538 30.5963 12.6581 31.4838C13.6697 32.0808 14.6575 32.1021 15.6767 31.5137C19.4557 29.3317 23.2398 27.1588 27.0205 24.9792C27.489 24.7081 27.8352 24.3632 28.0633 23.9513L14.241 15.9438Z" fill="#1A4674"/>
<path d="M10.1213 18.3161C10.9307 19.729 12.4522 20.682 14.1976 20.682C15.9538 20.682 17.4839 19.7169 18.2892 18.2888L14.241 15.9438L10.1213 18.3161Z" fill="#1A4674"/>
<path d="M28.3937 9.41239C28.3935 8.87578 28.2787 8.4016 28.0466 7.99464L14.241 15.9438L28.0633 23.9513C28.2848 23.5504 28.3949 23.0855 28.3952 22.5605C28.3952 22.5605 28.3952 13.796 28.3937 9.41239Z" fill="#1B598E"/>
<path d="M27.6337 16.5162H26.5535V17.5966H25.4732V16.5162H24.3932V15.4362H25.4732V14.3561H26.5535V15.4362H27.6337V16.5162ZM23.6924 16.5162H22.6124V17.5966H21.5323V16.5162H20.4521V15.4362H21.5323V14.3561H22.6124V15.4362H23.6924V16.5162Z" fill="white"/>
<path d="M18.2891 18.2888C17.4839 19.7169 15.9537 20.682 14.1976 20.682C12.4522 20.682 10.9307 19.729 10.1213 18.3161C9.71471 17.6071 9.50118 16.8038 9.50203 15.9865C9.50203 13.3933 11.6044 11.2911 14.1976 11.2911C15.9317 11.2911 17.4452 12.2322 18.2586 13.6307L22.3627 11.2674C20.7315 8.45148 17.6859 6.55701 14.1976 6.55701C8.98963 6.55701 4.76794 10.7788 4.76794 15.9865C4.76794 17.695 5.22245 19.2972 6.01682 20.6791C7.64399 23.51 10.6982 25.4161 14.1976 25.4161C17.7033 25.4161 20.7623 23.5023 22.3872 20.6632L18.2891 18.2888Z" fill="white"/>
</g>
<defs>
<clipPath id="clip0_531_119">
<rect width="28.4416" height="32" fill="white"/>
</clipPath>
</defs>
</svg>
