<svg width="29" height="32" viewBox="0 0 29 32" fill="none" xmlns="http://www.w3.org/2000/svg">
<g clip-path="url(#clip0_531_105)">
<path d="M28.3152 9.47288C28.315 8.94011 28.2011 8.46933 27.9706 8.0654C27.7443 7.66798 27.4053 7.33497 26.9507 7.07167C23.1976 4.90763 19.4408 2.75019 15.689 0.583939C14.6775 -9.17816e-06 13.6968 0.0213898 12.6928 0.613721C11.1989 1.49461 3.7198 5.77958 1.49111 7.07046C0.573274 7.6019 0.126655 8.41506 0.126434 9.47188C0.125 13.8239 0.126434 18.176 0.125 22.528C0.125 23.0491 0.234311 23.5108 0.454588 23.9087C0.681041 24.318 1.02475 24.6602 1.4899 24.9294C3.7187 26.2203 11.1988 30.5049 12.6923 31.3861C13.6968 31.9788 14.6775 32 15.6893 31.4159C19.4413 29.2496 23.1982 27.0921 26.9519 24.9281C27.417 24.6589 27.7607 24.3166 27.9872 23.9076C28.2071 23.5096 28.3167 23.048 28.3167 22.5268C28.3167 22.5268 28.3167 13.825 28.3152 9.47288Z" fill="#A179DC"/>
<path d="M14.264 15.9575L0.45459 23.9087C0.681043 24.318 1.02475 24.6602 1.4899 24.9294C3.7187 26.2203 11.1988 30.5049 12.6923 31.3862C13.6968 31.9788 14.6775 32 15.6893 31.4159C19.4413 29.2496 23.1982 27.0921 26.9519 24.9281C27.417 24.659 27.7607 24.3166 27.9872 23.9076L14.264 15.9575Z" fill="#280068"/>
<path d="M28.3152 9.47289C28.315 8.94012 28.201 8.46935 27.9706 8.06541L14.2639 15.9576L27.9871 23.9076C28.2071 23.5096 28.3164 23.048 28.3166 22.5268C28.3166 22.5268 28.3166 13.825 28.3152 9.47289Z" fill="#390091"/>
<path d="M22.3944 12.9852V14.4714H23.8806V12.9852H24.6237V14.4714H26.11V15.2145H24.6237V16.7006H26.11V17.4438H24.6237V18.93H23.8806V17.4438H22.3944V18.93H21.6513V17.4438H20.1652V16.7006H21.6513V15.2145H20.1652V14.4714H21.6513V12.9852H22.3944ZM23.8806 15.2144H22.3944V16.7006H23.8806V15.2144Z" fill="white"/>
<path d="M14.2943 5.52114C18.1708 5.52114 21.5552 7.62639 23.3681 10.7557L23.3504 10.7256L18.7894 13.3517C17.8908 11.8303 16.2436 10.8035 14.3537 10.7823L14.2942 10.782C11.4125 10.782 9.07625 13.1182 9.07625 15.9999C9.0753 16.9082 9.31259 17.8008 9.76443 18.5887C10.6638 20.1589 12.3547 21.2179 14.2943 21.2179C16.2459 21.2179 17.9463 20.1454 18.8411 18.5585L18.8194 18.5965L23.3735 21.2348C21.5805 24.3376 18.2424 26.4364 14.411 26.4782L14.2943 26.4788C10.4055 26.4788 7.01147 24.3606 5.20315 21.2147C4.32039 19.679 3.81531 17.8985 3.81531 15.9999C3.81531 10.2127 8.50675 5.52103 14.2942 5.52103L14.2943 5.52114Z" fill="white"/>
</g>
<defs>
<clipPath id="clip0_531_105">
<rect width="28.4416" height="32" fill="white"/>
</clipPath>
</defs>
</svg>
