<svg width="24" height="24" viewBox="0 0 24 24" fill="none" xmlns="http://www.w3.org/2000/svg">
<path d="M12 22.5C6.2085 22.5 1.5 17.7938 1.5 12.0045C1.5 6.21525 6.2085 1.5 12 1.5C17.7915 1.5 22.5 6.20625 22.5 11.9955C22.5 17.7848 17.7915 22.5 12 22.5ZM20.8515 13.4332C20.5478 13.335 18.0788 12.6037 15.2655 13.0477C16.4385 16.263 16.914 18.8948 17.0048 19.437C19.023 18.0818 20.4585 15.93 20.8522 13.434L20.8515 13.4332ZM15.5032 20.2657C15.372 19.4775 14.847 16.734 13.5922 13.4655C13.5757 13.4738 13.551 13.482 13.5345 13.482C8.4735 15.2475 6.66 18.7553 6.4965 19.083C8.01375 20.2658 9.9255 20.9722 12.0007 20.9722C13.2397 20.9805 14.4285 20.7262 15.5032 20.2657ZM5.33925 18.0045C5.544 17.6603 8.0055 13.5863 12.6315 12.0833C12.7462 12.042 12.8693 12.0097 12.984 11.9767C12.759 11.4615 12.5153 10.9552 12.2543 10.4572C7.77525 11.796 3.4275 11.7382 3.03375 11.7307C3.03375 11.8207 3.0255 11.9115 3.0255 12.0015C3.03375 14.3093 3.903 16.4115 5.3385 18.0045H5.33925ZM3.22275 10.1715C3.62475 10.1798 7.31625 10.1962 11.5162 9.07875C10.0312 6.435 8.424 4.21725 8.19375 3.894C5.67525 5.07975 3.80475 7.395 3.22275 10.1707V10.1715ZM9.9 3.29025C11.13 4.96425 12.2483 6.717 13.2465 8.538C16.4378 7.33875 17.7825 5.53275 17.9468 5.30175C16.3088 3.84525 14.1915 3.04125 11.9992 3.0435C11.292 3.04575 10.5878 3.12825 9.89925 3.2895L9.9 3.29025ZM18.9398 6.3375C18.7508 6.59175 17.25 8.52225 13.9357 9.8775L14.5342 11.175L14.7308 11.6347C17.7165 11.2575 20.6783 11.8642 20.973 11.922C20.952 9.88275 20.2342 7.9125 18.9382 6.3375H18.9398Z" fill="white"/>
</svg>
