<svg width="32" height="32" viewBox="0 0 32 32" fill="none" xmlns="http://www.w3.org/2000/svg">
<g clip-path="url(#clip0_531_60)">
<path d="M19.62 11.558L16.417 14.538L13.445 8.543L14.983 5.095C15.383 4.395 16.007 4.403 16.397 5.095L19.62 11.558Z" fill="#FFA000"/>
<path d="M13.445 8.543L16.417 14.538L4.44702 25.673L13.445 8.543Z" fill="#F57F17"/>
<path d="M23.123 7.003C23.695 6.453 24.287 6.641 24.438 7.42L27.554 25.525L17.226 31.725C16.866 31.925 15.906 32.011 15.906 32.011C15.906 32.011 15.032 31.907 14.699 31.711L4.44702 25.673L23.123 7.003Z" fill="#FFCA28"/>
<path d="M13.445 8.543L4.448 25.673L8.455 0.637995C8.603 -0.142005 9.047 -0.217005 9.443 0.470995L13.445 8.543Z" fill="#FFA000"/>
</g>
<defs>
<clipPath id="clip0_531_60">
<rect width="32" height="32" fill="white"/>
</clipPath>
</defs>
</svg>
