<svg width="500" height="500" viewBox="0 0 500 500" fill="none" xmlns="http://www.w3.org/2000/svg">
<g clip-path="url(#clip0_321_364)">
<mask id="path-1-inside-1_321_364" fill="white">
<path d="M0 0H50V50H0V0Z"/>
</mask>
<path d="M0 0V-1H-1V0H0ZM0 1H50V-1H0V1ZM1 50V0H-1V50H1Z" fill="#CBD5E1" mask="url(#path-1-inside-1_321_364)"/>
<mask id="path-3-inside-2_321_364" fill="white">
<path d="M50 0H100V50H50V0Z"/>
</mask>
<path d="M50 0V-1H49V0H50ZM50 1H100V-1H50V1ZM51 50V0H49V50H51Z" fill="#CBD5E1" mask="url(#path-3-inside-2_321_364)"/>
<mask id="path-5-inside-3_321_364" fill="white">
<path d="M100 0H150V50H100V0Z"/>
</mask>
<path d="M100 0V-1H99V0H100ZM100 1H150V-1H100V1ZM101 50V0H99V50H101Z" fill="#CBD5E1" mask="url(#path-5-inside-3_321_364)"/>
<mask id="path-7-inside-4_321_364" fill="white">
<path d="M150 0H200V50H150V0Z"/>
</mask>
<path d="M150 0V-1H149V0H150ZM150 1H200V-1H150V1ZM151 50V0H149V50H151Z" fill="#CBD5E1" mask="url(#path-7-inside-4_321_364)"/>
<mask id="path-9-inside-5_321_364" fill="white">
<path d="M200 0H250V50H200V0Z"/>
</mask>
<path d="M200 0V-1H199V0H200ZM200 1H250V-1H200V1ZM201 50V0H199V50H201Z" fill="#CBD5E1" mask="url(#path-9-inside-5_321_364)"/>
<mask id="path-11-inside-6_321_364" fill="white">
<path d="M250 0H300V50H250V0Z"/>
</mask>
<path d="M250 0V-1H249V0H250ZM250 1H300V-1H250V1ZM251 50V0H249V50H251Z" fill="#CBD5E1" mask="url(#path-11-inside-6_321_364)"/>
<mask id="path-13-inside-7_321_364" fill="white">
<path d="M300 0H350V50H300V0Z"/>
</mask>
<path d="M300 0V-1H299V0H300ZM300 1H350V-1H300V1ZM301 50V0H299V50H301Z" fill="#CBD5E1" mask="url(#path-13-inside-7_321_364)"/>
<mask id="path-15-inside-8_321_364" fill="white">
<path d="M350 0H400V50H350V0Z"/>
</mask>
<path d="M350 0V-1H349V0H350ZM350 1H400V-1H350V1ZM351 50V0H349V50H351Z" fill="#CBD5E1" mask="url(#path-15-inside-8_321_364)"/>
<mask id="path-17-inside-9_321_364" fill="white">
<path d="M400 0H450V50H400V0Z"/>
</mask>
<path d="M400 0V-1H399V0H400ZM400 1H450V-1H400V1ZM401 50V0H399V50H401Z" fill="#CBD5E1" mask="url(#path-17-inside-9_321_364)"/>
<mask id="path-19-inside-10_321_364" fill="white">
<path d="M450 0H500V50H450V0Z"/>
</mask>
<path d="M450 0V-1H449V0H450ZM500 0H501V-1H500V0ZM450 1H500V-1H450V1ZM499 0V50H501V0H499ZM451 50V0H449V50H451Z" fill="#CBD5E1" mask="url(#path-19-inside-10_321_364)"/>
<mask id="path-21-inside-11_321_364" fill="white">
<path d="M0 50H50V100H0V50Z"/>
</mask>
<path d="M0 50V49H-1V50H0ZM0 51H50V49H0V51ZM1 100V50H-1V100H1Z" fill="#CBD5E1" mask="url(#path-21-inside-11_321_364)"/>
<mask id="path-23-inside-12_321_364" fill="white">
<path d="M50 50H100V100H50V50Z"/>
</mask>
<path d="M50 50V49H49V50H50ZM50 51H100V49H50V51ZM51 100V50H49V100H51Z" fill="#CBD5E1" mask="url(#path-23-inside-12_321_364)"/>
<mask id="path-25-inside-13_321_364" fill="white">
<path d="M100 50H150V100H100V50Z"/>
</mask>
<path d="M100 50V49H99V50H100ZM100 51H150V49H100V51ZM101 100V50H99V100H101Z" fill="#CBD5E1" mask="url(#path-25-inside-13_321_364)"/>
<mask id="path-27-inside-14_321_364" fill="white">
<path d="M150 50H200V100H150V50Z"/>
</mask>
<path d="M150 50V49H149V50H150ZM150 51H200V49H150V51ZM151 100V50H149V100H151Z" fill="#CBD5E1" mask="url(#path-27-inside-14_321_364)"/>
<mask id="path-29-inside-15_321_364" fill="white">
<path d="M200 50H250V100H200V50Z"/>
</mask>
<path d="M200 50V49H199V50H200ZM200 51H250V49H200V51ZM201 100V50H199V100H201Z" fill="#CBD5E1" mask="url(#path-29-inside-15_321_364)"/>
<mask id="path-31-inside-16_321_364" fill="white">
<path d="M250 50H300V100H250V50Z"/>
</mask>
<path d="M250 50V49H249V50H250ZM250 51H300V49H250V51ZM251 100V50H249V100H251Z" fill="#CBD5E1" mask="url(#path-31-inside-16_321_364)"/>
<mask id="path-33-inside-17_321_364" fill="white">
<path d="M300 50H350V100H300V50Z"/>
</mask>
<path d="M300 50V49H299V50H300ZM300 51H350V49H300V51ZM301 100V50H299V100H301Z" fill="#CBD5E1" mask="url(#path-33-inside-17_321_364)"/>
<mask id="path-35-inside-18_321_364" fill="white">
<path d="M350 50H400V100H350V50Z"/>
</mask>
<path d="M350 50V49H349V50H350ZM350 51H400V49H350V51ZM351 100V50H349V100H351Z" fill="#CBD5E1" mask="url(#path-35-inside-18_321_364)"/>
<mask id="path-37-inside-19_321_364" fill="white">
<path d="M400 50H450V100H400V50Z"/>
</mask>
<path d="M400 50V49H399V50H400ZM400 51H450V49H400V51ZM401 100V50H399V100H401Z" fill="#CBD5E1" mask="url(#path-37-inside-19_321_364)"/>
<mask id="path-39-inside-20_321_364" fill="white">
<path d="M450 50H500V100H450V50Z"/>
</mask>
<path d="M450 50V49H449V50H450ZM500 50H501V49H500V50ZM450 51H500V49H450V51ZM499 50V100H501V50H499ZM451 100V50H449V100H451Z" fill="#CBD5E1" mask="url(#path-39-inside-20_321_364)"/>
<mask id="path-41-inside-21_321_364" fill="white">
<path d="M0 100H50V150H0V100Z"/>
</mask>
<path d="M0 100V99H-1V100H0ZM0 101H50V99H0V101ZM1 150V100H-1V150H1Z" fill="#CBD5E1" mask="url(#path-41-inside-21_321_364)"/>
<mask id="path-43-inside-22_321_364" fill="white">
<path d="M50 100H100V150H50V100Z"/>
</mask>
<path d="M50 100V99H49V100H50ZM50 101H100V99H50V101ZM51 150V100H49V150H51Z" fill="#CBD5E1" mask="url(#path-43-inside-22_321_364)"/>
<mask id="path-45-inside-23_321_364" fill="white">
<path d="M100 100H150V150H100V100Z"/>
</mask>
<path d="M100 100V99H99V100H100ZM100 101H150V99H100V101ZM101 150V100H99V150H101Z" fill="#CBD5E1" mask="url(#path-45-inside-23_321_364)"/>
<mask id="path-47-inside-24_321_364" fill="white">
<path d="M150 100H200V150H150V100Z"/>
</mask>
<path d="M150 100V99H149V100H150ZM150 101H200V99H150V101ZM151 150V100H149V150H151Z" fill="#CBD5E1" mask="url(#path-47-inside-24_321_364)"/>
<mask id="path-49-inside-25_321_364" fill="white">
<path d="M200 100H250V150H200V100Z"/>
</mask>
<path d="M200 100V99H199V100H200ZM200 101H250V99H200V101ZM201 150V100H199V150H201Z" fill="#CBD5E1" mask="url(#path-49-inside-25_321_364)"/>
<mask id="path-51-inside-26_321_364" fill="white">
<path d="M250 100H300V150H250V100Z"/>
</mask>
<path d="M250 100V99H249V100H250ZM250 101H300V99H250V101ZM251 150V100H249V150H251Z" fill="#CBD5E1" mask="url(#path-51-inside-26_321_364)"/>
<mask id="path-53-inside-27_321_364" fill="white">
<path d="M300 100H350V150H300V100Z"/>
</mask>
<path d="M300 100V99H299V100H300ZM300 101H350V99H300V101ZM301 150V100H299V150H301Z" fill="#CBD5E1" mask="url(#path-53-inside-27_321_364)"/>
<mask id="path-55-inside-28_321_364" fill="white">
<path d="M350 100H400V150H350V100Z"/>
</mask>
<path d="M350 100V99H349V100H350ZM350 101H400V99H350V101ZM351 150V100H349V150H351Z" fill="#CBD5E1" mask="url(#path-55-inside-28_321_364)"/>
<mask id="path-57-inside-29_321_364" fill="white">
<path d="M400 100H450V150H400V100Z"/>
</mask>
<path d="M400 100V99H399V100H400ZM400 101H450V99H400V101ZM401 150V100H399V150H401Z" fill="#CBD5E1" mask="url(#path-57-inside-29_321_364)"/>
<mask id="path-59-inside-30_321_364" fill="white">
<path d="M450 100H500V150H450V100Z"/>
</mask>
<path d="M450 100V99H449V100H450ZM500 100H501V99H500V100ZM450 101H500V99H450V101ZM499 100V150H501V100H499ZM451 150V100H449V150H451Z" fill="#CBD5E1" mask="url(#path-59-inside-30_321_364)"/>
<mask id="path-61-inside-31_321_364" fill="white">
<path d="M0 150H50V200H0V150Z"/>
</mask>
<path d="M0 150V149H-1V150H0ZM0 151H50V149H0V151ZM1 200V150H-1V200H1Z" fill="#CBD5E1" mask="url(#path-61-inside-31_321_364)"/>
<mask id="path-63-inside-32_321_364" fill="white">
<path d="M50 150H100V200H50V150Z"/>
</mask>
<path d="M50 150V149H49V150H50ZM50 151H100V149H50V151ZM51 200V150H49V200H51Z" fill="#CBD5E1" mask="url(#path-63-inside-32_321_364)"/>
<mask id="path-65-inside-33_321_364" fill="white">
<path d="M100 150H150V200H100V150Z"/>
</mask>
<path d="M100 150V149H99V150H100ZM100 151H150V149H100V151ZM101 200V150H99V200H101Z" fill="#CBD5E1" mask="url(#path-65-inside-33_321_364)"/>
<mask id="path-67-inside-34_321_364" fill="white">
<path d="M150 150H200V200H150V150Z"/>
</mask>
<path d="M150 150V149H149V150H150ZM150 151H200V149H150V151ZM151 200V150H149V200H151Z" fill="#CBD5E1" mask="url(#path-67-inside-34_321_364)"/>
<mask id="path-69-inside-35_321_364" fill="white">
<path d="M200 150H250V200H200V150Z"/>
</mask>
<path d="M200 150V149H199V150H200ZM200 151H250V149H200V151ZM201 200V150H199V200H201Z" fill="#CBD5E1" mask="url(#path-69-inside-35_321_364)"/>
<mask id="path-71-inside-36_321_364" fill="white">
<path d="M250 150H300V200H250V150Z"/>
</mask>
<path d="M250 150V149H249V150H250ZM250 151H300V149H250V151ZM251 200V150H249V200H251Z" fill="#CBD5E1" mask="url(#path-71-inside-36_321_364)"/>
<mask id="path-73-inside-37_321_364" fill="white">
<path d="M300 150H350V200H300V150Z"/>
</mask>
<path d="M300 150V149H299V150H300ZM300 151H350V149H300V151ZM301 200V150H299V200H301Z" fill="#CBD5E1" mask="url(#path-73-inside-37_321_364)"/>
<mask id="path-75-inside-38_321_364" fill="white">
<path d="M350 150H400V200H350V150Z"/>
</mask>
<path d="M350 150V149H349V150H350ZM350 151H400V149H350V151ZM351 200V150H349V200H351Z" fill="#CBD5E1" mask="url(#path-75-inside-38_321_364)"/>
<mask id="path-77-inside-39_321_364" fill="white">
<path d="M400 150H450V200H400V150Z"/>
</mask>
<path d="M400 150V149H399V150H400ZM400 151H450V149H400V151ZM401 200V150H399V200H401Z" fill="#CBD5E1" mask="url(#path-77-inside-39_321_364)"/>
<mask id="path-79-inside-40_321_364" fill="white">
<path d="M450 150H500V200H450V150Z"/>
</mask>
<path d="M450 150V149H449V150H450ZM500 150H501V149H500V150ZM450 151H500V149H450V151ZM499 150V200H501V150H499ZM451 200V150H449V200H451Z" fill="#CBD5E1" mask="url(#path-79-inside-40_321_364)"/>
<mask id="path-81-inside-41_321_364" fill="white">
<path d="M0 200H50V250H0V200Z"/>
</mask>
<path d="M0 200V199H-1V200H0ZM0 201H50V199H0V201ZM1 250V200H-1V250H1Z" fill="#CBD5E1" mask="url(#path-81-inside-41_321_364)"/>
<mask id="path-83-inside-42_321_364" fill="white">
<path d="M50 200H100V250H50V200Z"/>
</mask>
<path d="M50 200V199H49V200H50ZM50 201H100V199H50V201ZM51 250V200H49V250H51Z" fill="#CBD5E1" mask="url(#path-83-inside-42_321_364)"/>
<mask id="path-85-inside-43_321_364" fill="white">
<path d="M100 200H150V250H100V200Z"/>
</mask>
<path d="M100 200V199H99V200H100ZM100 201H150V199H100V201ZM101 250V200H99V250H101Z" fill="#CBD5E1" mask="url(#path-85-inside-43_321_364)"/>
<mask id="path-87-inside-44_321_364" fill="white">
<path d="M150 200H200V250H150V200Z"/>
</mask>
<path d="M150 200V199H149V200H150ZM150 201H200V199H150V201ZM151 250V200H149V250H151Z" fill="#CBD5E1" mask="url(#path-87-inside-44_321_364)"/>
<mask id="path-89-inside-45_321_364" fill="white">
<path d="M200 200H250V250H200V200Z"/>
</mask>
<path d="M200 200V199H199V200H200ZM200 201H250V199H200V201ZM201 250V200H199V250H201Z" fill="#CBD5E1" mask="url(#path-89-inside-45_321_364)"/>
<mask id="path-91-inside-46_321_364" fill="white">
<path d="M250 200H300V250H250V200Z"/>
</mask>
<path d="M250 200V199H249V200H250ZM250 201H300V199H250V201ZM251 250V200H249V250H251Z" fill="#CBD5E1" mask="url(#path-91-inside-46_321_364)"/>
<mask id="path-93-inside-47_321_364" fill="white">
<path d="M300 200H350V250H300V200Z"/>
</mask>
<path d="M300 200V199H299V200H300ZM300 201H350V199H300V201ZM301 250V200H299V250H301Z" fill="#CBD5E1" mask="url(#path-93-inside-47_321_364)"/>
<mask id="path-95-inside-48_321_364" fill="white">
<path d="M350 200H400V250H350V200Z"/>
</mask>
<path d="M350 200V199H349V200H350ZM350 201H400V199H350V201ZM351 250V200H349V250H351Z" fill="#CBD5E1" mask="url(#path-95-inside-48_321_364)"/>
<mask id="path-97-inside-49_321_364" fill="white">
<path d="M400 200H450V250H400V200Z"/>
</mask>
<path d="M400 200V199H399V200H400ZM400 201H450V199H400V201ZM401 250V200H399V250H401Z" fill="#CBD5E1" mask="url(#path-97-inside-49_321_364)"/>
<mask id="path-99-inside-50_321_364" fill="white">
<path d="M450 200H500V250H450V200Z"/>
</mask>
<path d="M450 200V199H449V200H450ZM500 200H501V199H500V200ZM450 201H500V199H450V201ZM499 200V250H501V200H499ZM451 250V200H449V250H451Z" fill="#CBD5E1" mask="url(#path-99-inside-50_321_364)"/>
<mask id="path-101-inside-51_321_364" fill="white">
<path d="M0 250H50V300H0V250Z"/>
</mask>
<path d="M0 250V249H-1V250H0ZM0 251H50V249H0V251ZM1 300V250H-1V300H1Z" fill="#CBD5E1" mask="url(#path-101-inside-51_321_364)"/>
<mask id="path-103-inside-52_321_364" fill="white">
<path d="M50 250H100V300H50V250Z"/>
</mask>
<path d="M50 250V249H49V250H50ZM50 251H100V249H50V251ZM51 300V250H49V300H51Z" fill="#CBD5E1" mask="url(#path-103-inside-52_321_364)"/>
<mask id="path-105-inside-53_321_364" fill="white">
<path d="M100 250H150V300H100V250Z"/>
</mask>
<path d="M100 250V249H99V250H100ZM100 251H150V249H100V251ZM101 300V250H99V300H101Z" fill="#CBD5E1" mask="url(#path-105-inside-53_321_364)"/>
<mask id="path-107-inside-54_321_364" fill="white">
<path d="M150 250H200V300H150V250Z"/>
</mask>
<path d="M150 250V249H149V250H150ZM150 251H200V249H150V251ZM151 300V250H149V300H151Z" fill="#CBD5E1" mask="url(#path-107-inside-54_321_364)"/>
<mask id="path-109-inside-55_321_364" fill="white">
<path d="M200 250H250V300H200V250Z"/>
</mask>
<path d="M200 250V249H199V250H200ZM200 251H250V249H200V251ZM201 300V250H199V300H201Z" fill="#CBD5E1" mask="url(#path-109-inside-55_321_364)"/>
<mask id="path-111-inside-56_321_364" fill="white">
<path d="M250 250H300V300H250V250Z"/>
</mask>
<path d="M250 250V249H249V250H250ZM250 251H300V249H250V251ZM251 300V250H249V300H251Z" fill="#CBD5E1" mask="url(#path-111-inside-56_321_364)"/>
<mask id="path-113-inside-57_321_364" fill="white">
<path d="M300 250H350V300H300V250Z"/>
</mask>
<path d="M300 250V249H299V250H300ZM300 251H350V249H300V251ZM301 300V250H299V300H301Z" fill="#CBD5E1" mask="url(#path-113-inside-57_321_364)"/>
<mask id="path-115-inside-58_321_364" fill="white">
<path d="M350 250H400V300H350V250Z"/>
</mask>
<path d="M350 250V249H349V250H350ZM350 251H400V249H350V251ZM351 300V250H349V300H351Z" fill="#CBD5E1" mask="url(#path-115-inside-58_321_364)"/>
<mask id="path-117-inside-59_321_364" fill="white">
<path d="M400 250H450V300H400V250Z"/>
</mask>
<path d="M400 250V249H399V250H400ZM400 251H450V249H400V251ZM401 300V250H399V300H401Z" fill="#CBD5E1" mask="url(#path-117-inside-59_321_364)"/>
<mask id="path-119-inside-60_321_364" fill="white">
<path d="M450 250H500V300H450V250Z"/>
</mask>
<path d="M450 250V249H449V250H450ZM500 250H501V249H500V250ZM450 251H500V249H450V251ZM499 250V300H501V250H499ZM451 300V250H449V300H451Z" fill="#CBD5E1" mask="url(#path-119-inside-60_321_364)"/>
<mask id="path-121-inside-61_321_364" fill="white">
<path d="M0 300H50V350H0V300Z"/>
</mask>
<path d="M0 300V299H-1V300H0ZM0 301H50V299H0V301ZM1 350V300H-1V350H1Z" fill="#CBD5E1" mask="url(#path-121-inside-61_321_364)"/>
<mask id="path-123-inside-62_321_364" fill="white">
<path d="M50 300H100V350H50V300Z"/>
</mask>
<path d="M50 300V299H49V300H50ZM50 301H100V299H50V301ZM51 350V300H49V350H51Z" fill="#CBD5E1" mask="url(#path-123-inside-62_321_364)"/>
<mask id="path-125-inside-63_321_364" fill="white">
<path d="M100 300H150V350H100V300Z"/>
</mask>
<path d="M100 300V299H99V300H100ZM100 301H150V299H100V301ZM101 350V300H99V350H101Z" fill="#CBD5E1" mask="url(#path-125-inside-63_321_364)"/>
<mask id="path-127-inside-64_321_364" fill="white">
<path d="M150 300H200V350H150V300Z"/>
</mask>
<path d="M150 300V299H149V300H150ZM150 301H200V299H150V301ZM151 350V300H149V350H151Z" fill="#CBD5E1" mask="url(#path-127-inside-64_321_364)"/>
<mask id="path-129-inside-65_321_364" fill="white">
<path d="M200 300H250V350H200V300Z"/>
</mask>
<path d="M200 300V299H199V300H200ZM200 301H250V299H200V301ZM201 350V300H199V350H201Z" fill="#CBD5E1" mask="url(#path-129-inside-65_321_364)"/>
<mask id="path-131-inside-66_321_364" fill="white">
<path d="M250 300H300V350H250V300Z"/>
</mask>
<path d="M250 300V299H249V300H250ZM250 301H300V299H250V301ZM251 350V300H249V350H251Z" fill="#CBD5E1" mask="url(#path-131-inside-66_321_364)"/>
<mask id="path-133-inside-67_321_364" fill="white">
<path d="M300 300H350V350H300V300Z"/>
</mask>
<path d="M300 300V299H299V300H300ZM300 301H350V299H300V301ZM301 350V300H299V350H301Z" fill="#CBD5E1" mask="url(#path-133-inside-67_321_364)"/>
<mask id="path-135-inside-68_321_364" fill="white">
<path d="M350 300H400V350H350V300Z"/>
</mask>
<path d="M350 300V299H349V300H350ZM350 301H400V299H350V301ZM351 350V300H349V350H351Z" fill="#CBD5E1" mask="url(#path-135-inside-68_321_364)"/>
<mask id="path-137-inside-69_321_364" fill="white">
<path d="M400 300H450V350H400V300Z"/>
</mask>
<path d="M400 300V299H399V300H400ZM400 301H450V299H400V301ZM401 350V300H399V350H401Z" fill="#CBD5E1" mask="url(#path-137-inside-69_321_364)"/>
<mask id="path-139-inside-70_321_364" fill="white">
<path d="M450 300H500V350H450V300Z"/>
</mask>
<path d="M450 300V299H449V300H450ZM500 300H501V299H500V300ZM450 301H500V299H450V301ZM499 300V350H501V300H499ZM451 350V300H449V350H451Z" fill="#CBD5E1" mask="url(#path-139-inside-70_321_364)"/>
<mask id="path-141-inside-71_321_364" fill="white">
<path d="M0 350H50V400H0V350Z"/>
</mask>
<path d="M0 350V349H-1V350H0ZM0 351H50V349H0V351ZM1 400V350H-1V400H1Z" fill="#CBD5E1" mask="url(#path-141-inside-71_321_364)"/>
<mask id="path-143-inside-72_321_364" fill="white">
<path d="M50 350H100V400H50V350Z"/>
</mask>
<path d="M50 350V349H49V350H50ZM50 351H100V349H50V351ZM51 400V350H49V400H51Z" fill="#CBD5E1" mask="url(#path-143-inside-72_321_364)"/>
<mask id="path-145-inside-73_321_364" fill="white">
<path d="M100 350H150V400H100V350Z"/>
</mask>
<path d="M100 350V349H99V350H100ZM100 351H150V349H100V351ZM101 400V350H99V400H101Z" fill="#CBD5E1" mask="url(#path-145-inside-73_321_364)"/>
<mask id="path-147-inside-74_321_364" fill="white">
<path d="M150 350H200V400H150V350Z"/>
</mask>
<path d="M150 350V349H149V350H150ZM150 351H200V349H150V351ZM151 400V350H149V400H151Z" fill="#CBD5E1" mask="url(#path-147-inside-74_321_364)"/>
<mask id="path-149-inside-75_321_364" fill="white">
<path d="M200 350H250V400H200V350Z"/>
</mask>
<path d="M200 350V349H199V350H200ZM200 351H250V349H200V351ZM201 400V350H199V400H201Z" fill="#CBD5E1" mask="url(#path-149-inside-75_321_364)"/>
<mask id="path-151-inside-76_321_364" fill="white">
<path d="M250 350H300V400H250V350Z"/>
</mask>
<path d="M250 350V349H249V350H250ZM250 351H300V349H250V351ZM251 400V350H249V400H251Z" fill="#CBD5E1" mask="url(#path-151-inside-76_321_364)"/>
<mask id="path-153-inside-77_321_364" fill="white">
<path d="M300 350H350V400H300V350Z"/>
</mask>
<path d="M300 350V349H299V350H300ZM300 351H350V349H300V351ZM301 400V350H299V400H301Z" fill="#CBD5E1" mask="url(#path-153-inside-77_321_364)"/>
<mask id="path-155-inside-78_321_364" fill="white">
<path d="M350 350H400V400H350V350Z"/>
</mask>
<path d="M350 350V349H349V350H350ZM350 351H400V349H350V351ZM351 400V350H349V400H351Z" fill="#CBD5E1" mask="url(#path-155-inside-78_321_364)"/>
<mask id="path-157-inside-79_321_364" fill="white">
<path d="M400 350H450V400H400V350Z"/>
</mask>
<path d="M400 350V349H399V350H400ZM400 351H450V349H400V351ZM401 400V350H399V400H401Z" fill="#CBD5E1" mask="url(#path-157-inside-79_321_364)"/>
<mask id="path-159-inside-80_321_364" fill="white">
<path d="M450 350H500V400H450V350Z"/>
</mask>
<path d="M450 350V349H449V350H450ZM500 350H501V349H500V350ZM450 351H500V349H450V351ZM499 350V400H501V350H499ZM451 400V350H449V400H451Z" fill="#CBD5E1" mask="url(#path-159-inside-80_321_364)"/>
<mask id="path-161-inside-81_321_364" fill="white">
<path d="M0 400H50V450H0V400Z"/>
</mask>
<path d="M0 400V399H-1V400H0ZM0 401H50V399H0V401ZM1 450V400H-1V450H1Z" fill="#CBD5E1" mask="url(#path-161-inside-81_321_364)"/>
<mask id="path-163-inside-82_321_364" fill="white">
<path d="M50 400H100V450H50V400Z"/>
</mask>
<path d="M50 400V399H49V400H50ZM50 401H100V399H50V401ZM51 450V400H49V450H51Z" fill="#CBD5E1" mask="url(#path-163-inside-82_321_364)"/>
<mask id="path-165-inside-83_321_364" fill="white">
<path d="M100 400H150V450H100V400Z"/>
</mask>
<path d="M100 400V399H99V400H100ZM100 401H150V399H100V401ZM101 450V400H99V450H101Z" fill="#CBD5E1" mask="url(#path-165-inside-83_321_364)"/>
<mask id="path-167-inside-84_321_364" fill="white">
<path d="M150 400H200V450H150V400Z"/>
</mask>
<path d="M150 400V399H149V400H150ZM150 401H200V399H150V401ZM151 450V400H149V450H151Z" fill="#CBD5E1" mask="url(#path-167-inside-84_321_364)"/>
<mask id="path-169-inside-85_321_364" fill="white">
<path d="M200 400H250V450H200V400Z"/>
</mask>
<path d="M200 400V399H199V400H200ZM200 401H250V399H200V401ZM201 450V400H199V450H201Z" fill="#CBD5E1" mask="url(#path-169-inside-85_321_364)"/>
<mask id="path-171-inside-86_321_364" fill="white">
<path d="M250 400H300V450H250V400Z"/>
</mask>
<path d="M250 400V399H249V400H250ZM250 401H300V399H250V401ZM251 450V400H249V450H251Z" fill="#CBD5E1" mask="url(#path-171-inside-86_321_364)"/>
<mask id="path-173-inside-87_321_364" fill="white">
<path d="M300 400H350V450H300V400Z"/>
</mask>
<path d="M300 400V399H299V400H300ZM300 401H350V399H300V401ZM301 450V400H299V450H301Z" fill="#CBD5E1" mask="url(#path-173-inside-87_321_364)"/>
<mask id="path-175-inside-88_321_364" fill="white">
<path d="M350 400H400V450H350V400Z"/>
</mask>
<path d="M350 400V399H349V400H350ZM350 401H400V399H350V401ZM351 450V400H349V450H351Z" fill="#CBD5E1" mask="url(#path-175-inside-88_321_364)"/>
<mask id="path-177-inside-89_321_364" fill="white">
<path d="M400 400H450V450H400V400Z"/>
</mask>
<path d="M400 400V399H399V400H400ZM400 401H450V399H400V401ZM401 450V400H399V450H401Z" fill="#CBD5E1" mask="url(#path-177-inside-89_321_364)"/>
<mask id="path-179-inside-90_321_364" fill="white">
<path d="M450 400H500V450H450V400Z"/>
</mask>
<path d="M450 400V399H449V400H450ZM500 400H501V399H500V400ZM450 401H500V399H450V401ZM499 400V450H501V400H499ZM451 450V400H449V450H451Z" fill="#CBD5E1" mask="url(#path-179-inside-90_321_364)"/>
<mask id="path-181-inside-91_321_364" fill="white">
<path d="M0 450H50V500H0V450Z"/>
</mask>
<path d="M0 450V449H-1V450H0ZM0 500H-1V501H0V500ZM0 451H50V449H0V451ZM50 499H0V501H50V499ZM1 500V450H-1V500H1Z" fill="#CBD5E1" mask="url(#path-181-inside-91_321_364)"/>
<mask id="path-183-inside-92_321_364" fill="white">
<path d="M50 450H100V500H50V450Z"/>
</mask>
<path d="M50 450V449H49V450H50ZM50 500H49V501H50V500ZM50 451H100V449H50V451ZM100 499H50V501H100V499ZM51 500V450H49V500H51Z" fill="#CBD5E1" mask="url(#path-183-inside-92_321_364)"/>
<mask id="path-185-inside-93_321_364" fill="white">
<path d="M100 450H150V500H100V450Z"/>
</mask>
<path d="M100 450V449H99V450H100ZM100 500H99V501H100V500ZM100 451H150V449H100V451ZM150 499H100V501H150V499ZM101 500V450H99V500H101Z" fill="#CBD5E1" mask="url(#path-185-inside-93_321_364)"/>
<mask id="path-187-inside-94_321_364" fill="white">
<path d="M150 450H200V500H150V450Z"/>
</mask>
<path d="M150 450V449H149V450H150ZM150 500H149V501H150V500ZM150 451H200V449H150V451ZM200 499H150V501H200V499ZM151 500V450H149V500H151Z" fill="#CBD5E1" mask="url(#path-187-inside-94_321_364)"/>
<mask id="path-189-inside-95_321_364" fill="white">
<path d="M200 450H250V500H200V450Z"/>
</mask>
<path d="M200 450V449H199V450H200ZM200 500H199V501H200V500ZM200 451H250V449H200V451ZM250 499H200V501H250V499ZM201 500V450H199V500H201Z" fill="#CBD5E1" mask="url(#path-189-inside-95_321_364)"/>
<mask id="path-191-inside-96_321_364" fill="white">
<path d="M250 450H300V500H250V450Z"/>
</mask>
<path d="M250 450V449H249V450H250ZM250 500H249V501H250V500ZM250 451H300V449H250V451ZM300 499H250V501H300V499ZM251 500V450H249V500H251Z" fill="#CBD5E1" mask="url(#path-191-inside-96_321_364)"/>
<mask id="path-193-inside-97_321_364" fill="white">
<path d="M300 450H350V500H300V450Z"/>
</mask>
<path d="M300 450V449H299V450H300ZM300 500H299V501H300V500ZM300 451H350V449H300V451ZM350 499H300V501H350V499ZM301 500V450H299V500H301Z" fill="#CBD5E1" mask="url(#path-193-inside-97_321_364)"/>
<mask id="path-195-inside-98_321_364" fill="white">
<path d="M350 450H400V500H350V450Z"/>
</mask>
<path d="M350 450V449H349V450H350ZM350 500H349V501H350V500ZM350 451H400V449H350V451ZM400 499H350V501H400V499ZM351 500V450H349V500H351Z" fill="#CBD5E1" mask="url(#path-195-inside-98_321_364)"/>
<mask id="path-197-inside-99_321_364" fill="white">
<path d="M400 450H450V500H400V450Z"/>
</mask>
<path d="M400 450V449H399V450H400ZM400 500H399V501H400V500ZM400 451H450V449H400V451ZM450 499H400V501H450V499ZM401 500V450H399V500H401Z" fill="#CBD5E1" mask="url(#path-197-inside-99_321_364)"/>
<mask id="path-199-inside-100_321_364" fill="white">
<path d="M450 450H500V500H450V450Z"/>
</mask>
<path d="M450 450V449H449V450H450ZM500 450H501V449H500V450ZM500 500V501H501V500H500ZM450 500H449V501H450V500ZM450 451H500V449H450V451ZM499 450V500H501V450H499ZM500 499H450V501H500V499ZM451 500V450H449V500H451Z" fill="#CBD5E1" mask="url(#path-199-inside-100_321_364)"/>
<rect x="400" width="100" height="500" fill="url(#paint0_linear_321_364)"/>
</g>
<defs>
<linearGradient id="paint0_linear_321_364" x1="400" y1="250" x2="500" y2="250" gradientUnits="userSpaceOnUse">
<stop stop-color="#E2E8F0" stop-opacity="0"/>
<stop offset="1" stop-color="#E2E8F0"/>
</linearGradient>
<clipPath id="clip0_321_364">
<rect width="500" height="500" fill="white"/>
</clipPath>
</defs>
</svg>
