<svg width="24" height="24" viewBox="0 0 24 24" fill="none" xmlns="http://www.w3.org/2000/svg">
<path d="M20.946 8.289C20.9025 7.33125 20.7503 6.6765 20.5275 6.10425C20.2973 5.5125 19.9898 5.01075 19.4895 4.5105C18.9893 4.01025 18.4875 3.70275 17.8958 3.4725C17.3235 3.24975 16.6687 3.0975 15.711 3.054C14.751 3.0105 14.4443 3 12 3C9.55575 3 9.249 3.0105 8.289 3.054C7.33125 3.0975 6.6765 3.24975 6.10425 3.4725C5.5125 3.70275 5.01075 4.01025 4.5105 4.5105C4.01025 5.01075 3.70275 5.5125 3.4725 6.10425C3.24975 6.6765 3.0975 7.33125 3.054 8.289C3.0105 9.249 3 9.55575 3 12C3 14.4443 3.0105 14.751 3.054 15.711C3.0975 16.6687 3.24975 17.3235 3.4725 17.8958C3.70275 18.4875 4.01025 18.9893 4.5105 19.4895C5.01075 19.9898 5.5125 20.2973 6.10425 20.5275C6.6765 20.7503 7.33125 20.9017 8.289 20.946C9.249 20.9895 9.55575 21 12 21C14.4443 21 14.751 20.9895 15.711 20.946C16.6687 20.9025 17.3235 20.7503 17.8958 20.5275C18.4875 20.2973 18.9893 19.9898 19.4895 19.4895C19.9898 18.9893 20.2973 18.4875 20.5275 17.8958C20.7503 17.3235 20.9017 16.6687 20.946 15.711C20.9895 14.751 21 14.4443 21 12C21 9.55575 20.9895 9.249 20.946 8.289ZM19.326 15.6368C19.2862 16.5143 19.1392 16.9905 19.0162 17.3077C18.8527 17.7277 18.6578 18.0278 18.3428 18.3428C18.0278 18.6578 17.7277 18.8527 17.3077 19.0162C16.9905 19.1392 16.5143 19.2862 15.6368 19.326C14.688 19.3695 14.403 19.3785 12 19.3785C9.597 19.3785 9.312 19.3695 8.36325 19.326C7.48575 19.2862 7.0095 19.1392 6.69225 19.0162C6.27225 18.8527 5.97225 18.6578 5.65725 18.3428C5.34225 18.0278 5.14725 17.7277 4.98375 17.3077C4.86075 16.9905 4.71375 16.5143 4.674 15.6368C4.6305 14.688 4.6215 14.403 4.6215 12C4.6215 9.597 4.6305 9.312 4.674 8.36325C4.71375 7.48575 4.86075 7.0095 4.98375 6.69225C5.14725 6.27225 5.34225 5.97225 5.65725 5.65725C5.97225 5.34225 6.27225 5.14725 6.69225 4.98375C7.0095 4.86075 7.48575 4.71375 8.36325 4.674C9.312 4.6305 9.597 4.6215 12 4.6215C14.403 4.6215 14.688 4.6305 15.6368 4.674C16.5143 4.71375 16.9905 4.86075 17.3077 4.98375C17.7277 5.14725 18.0278 5.34225 18.3428 5.65725C18.6578 5.97225 18.8527 6.27225 19.0162 6.69225C19.1392 7.0095 19.2862 7.48575 19.326 8.36325C19.3695 9.312 19.3785 9.597 19.3785 12C19.3785 14.403 19.3695 14.688 19.326 15.6368ZM12 7.3785C9.44775 7.3785 7.3785 9.44775 7.3785 12C7.3785 14.5523 9.44775 16.6215 12 16.6215C14.5523 16.6215 16.6215 14.5523 16.6215 12C16.6215 9.44775 14.5523 7.3785 12 7.3785ZM12 15C10.3432 15 9 13.6568 9 12C9 10.3432 10.3432 9 12 9C13.6568 9 15 10.3432 15 12C15 13.6568 13.6568 15 12 15ZM17.8845 7.1955C17.8845 7.79175 17.4008 8.2755 16.8045 8.2755C16.2083 8.2755 15.7245 7.79175 15.7245 7.1955C15.7245 6.59925 16.2083 6.1155 16.8045 6.1155C17.4008 6.1155 17.8845 6.59925 17.8845 7.1955Z" fill="white"/>
</svg>
