<svg width="32" height="32" viewBox="0 0 32 32" fill="none" xmlns="http://www.w3.org/2000/svg">
<g clip-path="url(#clip0_531_79)">
<path d="M11.622 24.74C11.622 24.74 10.392 25.488 12.477 25.702C14.987 26.022 16.324 25.969 19.102 25.435C19.6603 25.7769 20.2508 26.0633 20.865 26.29C14.615 28.962 6.70598 26.13 11.622 24.74ZM10.822 21.267C10.822 21.267 9.48598 22.282 11.57 22.497C14.295 22.764 16.432 22.817 20.12 22.07C20.4787 22.4338 20.9178 22.7081 21.402 22.871C13.868 25.115 5.42598 23.084 10.822 21.267ZM25.569 27.357C25.569 27.357 26.477 28.105 24.554 28.693C20.974 29.763 9.53998 30.083 6.33398 28.693C5.21198 28.213 7.34898 27.518 8.03398 27.411C8.72898 27.251 9.10398 27.251 9.10398 27.251C7.87398 26.396 0.92898 29.014 5.57798 29.761C18.348 31.845 28.874 28.853 25.561 27.357H25.569ZM12.2 17.633C12.2 17.633 6.37598 19.023 10.116 19.503C11.719 19.717 14.871 19.663 17.81 19.45C20.214 19.236 22.62 18.81 22.62 18.81C22.62 18.81 21.765 19.184 21.177 19.558C15.247 21.108 3.86498 20.413 7.12498 18.81C9.90298 17.474 12.201 17.635 12.201 17.635L12.2 17.633ZM22.62 23.457C28.604 20.357 25.826 17.367 23.902 17.74C23.422 17.847 23.207 17.954 23.207 17.954C23.207 17.954 23.367 17.634 23.741 17.527C27.535 16.191 30.527 21.534 22.511 23.617C22.511 23.617 22.564 23.564 22.618 23.457H22.62ZM12.79 31.899C18.56 32.273 27.377 31.685 27.59 28.959C27.59 28.959 27.163 30.029 22.835 30.829C17.919 31.737 11.828 31.629 8.24798 31.043C8.24798 31.043 8.99598 31.684 12.79 31.899Z" fill="#4E7896"/>
<path d="M18.996 0.00100708C18.996 0.00100708 22.309 3.36701 15.844 8.44301C10.661 12.557 14.669 14.908 15.844 17.58C12.798 14.855 10.608 12.45 12.104 10.207C14.294 6.89301 20.332 5.30001 18.996 0.00100708ZM17.296 15.336C18.846 17.099 16.869 18.702 16.869 18.702C16.869 18.702 20.823 16.672 19.006 14.16C17.35 11.756 16.066 10.58 23.013 6.57301C23.013 6.57301 12.06 9.29801 17.296 15.336Z" fill="#F58219"/>
</g>
<defs>
<clipPath id="clip0_531_79">
<rect width="32" height="32" fill="white"/>
</clipPath>
</defs>
</svg>
