<svg width="24" height="24" viewBox="0 0 24 24" fill="none" xmlns="http://www.w3.org/2000/svg">
<path d="M2.77735 8.13375H6.8341V20.34H2.77735V8.13375ZM4.83235 2.25C3.44485 2.25 2.53735 3.16125 2.53735 4.359C2.53735 5.5305 3.41785 6.46725 4.7791 6.46725H4.80535C6.21985 6.46725 7.10035 5.52975 7.10035 4.359C7.0741 3.16125 6.21985 2.25 4.8316 2.25H4.83235ZM16.7919 7.848C14.6386 7.848 13.6749 9.0315 13.1356 9.86325V8.1345H9.07885C9.1321 9.27975 9.07885 20.3408 9.07885 20.3408H13.1356V13.5248C13.1356 13.1603 13.1619 12.7957 13.2691 12.5347C13.5624 11.8057 14.2299 11.0512 15.3504 11.0512C16.8181 11.0512 17.4054 12.1703 17.4054 13.8113V20.3408H21.4621V13.3417C21.4621 9.5925 19.4604 7.848 16.7911 7.848H16.7919Z" fill="white"/>
</svg>
