<svg xmlns="http://www.w3.org/2000/svg" version="1.1" xmlns:xlink="http://www.w3.org/1999/xlink" width="512" height="512" x="0" y="0" viewBox="0 0 455.431 455.431" style="enable-background:new 0 0 512 512" xml:space="preserve" class=""><g><path d="M405.493 412.764c-69.689 56.889-287.289 56.889-355.556 0-69.689-56.889-62.578-300.089 0-364.089s292.978-64 355.556 0 69.689 307.201 0 364.089z" style="" fill="#069be8" data-original="#d34178" class="" opacity="1"></path><path d="M229.138 313.209c-62.578 49.778-132.267 75.378-197.689 76.8-48.356-82.489-38.4-283.022 18.489-341.333 51.2-52.622 211.911-62.578 304.356-29.867 22.755 93.867-24.178 213.333-125.156 294.4z" style="" fill="#0ea5e9" data-original="#e84e89" class="" opacity="1"></path><path d="m300.249 348.764-22.756-52.622H176.516l-22.756 52.622H96.871l103.822-241.778h52.622l103.822 241.778h-56.888zM227.716 179.52l-29.867 69.689h61.156l-31.289-69.689z" style="" fill="#ffffff" data-original="#ffffff" class=""></path></g></svg>