<svg width="32" height="32" viewBox="0 0 32 32" fill="none" xmlns="http://www.w3.org/2000/svg">
<g clip-path="url(#clip0_532_126)">
<path fill-rule="evenodd" clip-rule="evenodd" d="M29.4758 24.9263C27.7353 24.8778 26.3851 25.0562 25.2535 25.5322C24.9276 25.6631 24.4047 25.6631 24.3618 26.0732C24.5359 26.2453 24.5569 26.527 24.7096 26.7655C24.9706 27.1984 25.4281 27.7815 25.8413 28.084L27.2339 29.0792C28.0826 29.5979 29.0402 29.9009 29.867 30.4201C30.346 30.7231 30.8245 31.1123 31.3035 31.4371C31.5474 31.6102 31.6952 31.8918 32 31.9994V31.934C31.8479 31.7401 31.804 31.4589 31.6523 31.2418L30.9986 30.615C30.3679 29.7715 29.584 29.0356 28.7353 28.4306C28.0387 27.9546 26.5159 27.306 26.2329 26.5061L26.19 26.4576C26.6681 26.4092 27.2339 26.241 27.6914 26.111C28.4319 25.9171 29.106 25.9598 29.867 25.7654L30.9123 25.4624V25.2685C30.5206 24.8793 30.2377 24.3601 29.8245 23.9926C28.7148 23.041 27.4953 22.1108 26.2329 21.3322C25.5583 20.8998 24.6876 20.6182 23.9696 20.2512C23.7077 20.1213 23.2731 20.0564 23.1209 19.8401C22.7282 19.3651 22.5111 18.7373 22.2282 18.1745L20.4439 14.4113C20.0522 13.5678 19.8122 12.7243 19.3342 11.9458C17.0923 8.26887 14.6544 6.04138 10.9111 3.85656C10.1062 3.40234 9.14873 3.20698 8.13072 2.96944L6.49858 2.88219C6.14981 2.73094 5.80202 2.31986 5.49716 2.12499C4.25672 1.34646 1.05733 -0.340516 0.14273 1.8826C-0.445053 3.28842 1.01343 4.67241 1.50853 5.38647C1.87925 5.88383 2.35728 6.44616 2.61922 7.00848C2.76555 7.37593 2.81434 7.76568 2.96701 8.15495C3.3148 9.10654 3.64162 10.1667 4.09868 11.0538C4.34257 11.508 4.59866 11.9846 4.90352 12.3952C5.07766 12.6375 5.38253 12.7413 5.4474 13.1306C5.14253 13.5634 5.12156 14.2116 4.94742 14.7531C4.16355 17.1972 4.46842 20.2251 5.57813 22.0245C5.9269 22.565 6.74882 23.7551 7.8639 23.3004C8.84337 22.9111 8.62485 21.6784 8.90776 20.5969C8.97361 20.3375 8.92971 20.1645 9.05995 19.9909V20.0394L9.9526 21.8345C10.6272 22.8942 11.8028 23.9975 12.7818 24.7333C13.3037 25.1226 13.7173 25.7935 14.37 26.0311V25.9656H14.3271C14.1963 25.7717 14.0002 25.6844 13.8261 25.5332C13.4344 25.1439 12.9993 24.6679 12.6944 24.2355C11.7808 23.0246 10.976 21.6832 10.2575 20.2992C9.9087 19.6288 9.60383 18.8934 9.32189 18.223C9.19019 17.9631 9.19019 17.5734 8.97313 17.4445C8.64631 17.9195 8.16828 18.3316 7.9278 18.9152C7.51415 19.845 7.47123 20.9915 7.31904 22.1811C7.23124 22.2029 7.27026 22.1811 7.23124 22.2295C6.53566 22.057 6.29567 21.3424 6.0347 20.7374C5.38204 19.2017 5.27277 16.7362 5.83861 14.9625C5.9908 14.5082 6.64443 13.0806 6.38347 12.6482C6.25176 12.2371 5.81763 11.9996 5.57764 11.6748C5.29472 11.2637 4.99083 10.745 4.79474 10.2908C4.27281 9.07891 4.01185 7.73854 3.44553 6.52712C3.18359 5.96479 2.72702 5.38065 2.35679 4.86196C1.94315 4.27782 1.48707 3.86674 1.16025 3.17498C1.05147 2.9326 0.899285 2.5477 1.07342 2.28787C1.11635 2.11481 1.20415 2.04549 1.37732 2.0067C1.66023 1.76432 2.46605 2.07166 2.74897 2.20061C3.55382 2.5254 4.22842 2.82789 4.90303 3.28163C5.2079 3.49783 5.53472 3.90891 5.92641 4.0175H6.38395C7.08051 4.16875 7.86341 4.06598 8.51558 4.25988C9.66919 4.6283 10.7135 5.16833 11.6501 5.75295C14.5007 7.54802 16.8518 10.1003 18.4401 13.1504C18.701 13.6478 18.8098 14.102 19.0498 14.6212C19.5074 15.6814 20.0732 16.7624 20.5293 17.8012C20.9868 18.8178 21.4219 19.8566 22.0746 20.7001C22.4014 21.1543 23.7067 21.3919 24.294 21.6299C24.7296 21.8238 25.4037 21.9983 25.7964 22.2358C26.5359 22.6901 27.2758 23.2092 27.9719 23.7066C28.3197 23.9655 29.4084 24.5065 29.4733 24.9379L29.4758 24.9263ZM7.28148 6.13106C6.98079 6.12842 6.68104 6.16476 6.38981 6.23917V6.28764H6.43273C6.60687 6.63376 6.91174 6.87178 7.12929 7.17476L7.63025 8.21312L7.67317 8.16464C7.97804 7.94844 8.13072 7.60232 8.13072 7.08362C7.99999 6.93238 7.97853 6.78065 7.86975 6.6294C7.73902 6.4132 7.45611 6.30461 7.28148 6.13203V6.13106Z" fill="#00678C"/>
</g>
<defs>
<clipPath id="clip0_532_126">
<rect width="32" height="32" fill="white"/>
</clipPath>
</defs>
</svg>
