<svg width="32" height="32" viewBox="0 0 32 32" fill="none" xmlns="http://www.w3.org/2000/svg">
<g clip-path="url(#clip0_531_74)">
<path d="M8.28082 4.41554C8.28082 2.2619 8.87151 1.0903 12.1328 0.532404C14.347 0.15299 17.186 0.105563 19.8341 0.532404C21.9257 0.869924 23.6861 2.39311 23.6861 4.41554V11.5209C23.6861 13.6048 21.977 15.3118 19.8341 15.3118H12.1328C9.51912 15.3118 7.31627 17.4906 7.31627 19.9538V23.3628H4.66828C2.42841 23.3628 1.1243 21.7838 0.576462 19.5744C-0.162507 16.6061 -0.131137 14.8376 0.576462 11.9948C1.18995 9.51486 3.15024 8.20636 5.39027 8.20636H15.9849V7.25782H8.28066V4.41539L8.28082 4.41554Z" fill="url(#paint0_linear_531_74)"/>
<path d="M23.6863 27.1539C23.6863 29.3076 21.7746 30.3984 19.8343 30.9424C16.9153 31.7626 14.5726 31.637 12.133 30.9424C10.0956 30.3622 8.28101 29.1765 8.28101 27.1539V20.0486C8.28101 18.0038 10.0245 16.2577 12.133 16.2577H19.8343C22.3995 16.2577 24.6509 14.0903 24.6509 11.5208V8.20667H27.5385C29.7813 8.20667 30.8372 9.83577 31.3905 11.9951C32.1609 14.9941 32.1951 17.2369 31.3905 19.5747C30.6116 21.8455 29.7784 23.3631 27.5385 23.3631H15.985V24.3117H23.6863V27.1539Z" fill="url(#paint1_linear_531_74)"/>
<path d="M10.2068 3.94412C10.2068 3.15747 10.8517 2.52132 11.6508 2.52132C12.4469 2.52132 13.0948 3.15731 13.0948 3.94412C13.0948 4.72824 12.447 5.36407 11.6508 5.36407C10.852 5.36407 10.2068 4.72808 10.2068 3.94412ZM18.8723 27.6255C18.8723 26.8414 19.5201 26.2056 20.3163 26.2056C21.1151 26.2056 21.7603 26.8416 21.7603 27.6255C21.7603 28.4122 21.1154 29.0483 20.3163 29.0483C19.5203 29.0483 18.8723 28.4123 18.8723 27.6255Z" fill="white"/>
</g>
<defs>
<linearGradient id="paint0_linear_531_74" x1="23.6863" y1="9.22271" x2="0.0341889" y2="9.03036" gradientUnits="userSpaceOnUse">
<stop stop-color="#366A96"/>
<stop offset="1" stop-color="#3679B0"/>
</linearGradient>
<linearGradient id="paint1_linear_531_74" x1="31.9811" y1="19.8591" x2="-14.8389" y2="19.8591" gradientUnits="userSpaceOnUse">
<stop stop-color="#FFC836"/>
<stop offset="1" stop-color="#FFE873"/>
</linearGradient>
<clipPath id="clip0_531_74">
<rect width="32" height="32" fill="white"/>
</clipPath>
</defs>
</svg>
