<svg width="32" height="31" viewBox="0 0 32 31" fill="none" xmlns="http://www.w3.org/2000/svg">
<g clip-path="url(#clip0_533_130)">
<path d="M22.1726 21.2178C23.3535 21.0956 24.2494 20.0776 24.2086 18.8558C24.168 17.6342 23.1499 16.6568 21.9282 16.6568H21.8469C20.5844 16.6976 19.6071 17.7563 19.6479 19.0187C19.6886 19.6296 19.9329 20.159 20.2994 20.5255C18.9149 23.254 16.7974 25.2493 13.6211 26.919C11.4629 28.0592 9.22325 28.4665 6.98362 28.1815C5.15112 27.9371 3.72587 27.1227 2.82987 25.7787C1.52687 23.7833 1.40475 21.625 2.50425 19.4667C3.278 17.9192 4.4995 16.779 5.27325 16.2088C5.11037 15.6795 4.866 14.7836 4.74387 14.1321C-1.16075 18.408 -0.549876 24.1906 1.24187 26.919C2.58562 28.9552 5.314 30.2176 8.32737 30.2176C9.14175 30.2176 9.95612 30.1361 10.7706 29.9326C15.983 28.9145 19.933 25.8195 22.1726 21.2178ZM29.3396 16.1682C26.2447 12.5438 21.684 10.5485 16.4716 10.5485H15.8201C15.4536 9.81546 14.6799 9.3267 13.8247 9.3267H13.7432C12.481 9.36745 11.5037 10.4262 11.5444 11.6887C11.5851 12.9103 12.6031 13.8877 13.8247 13.8877H13.9061C14.802 13.847 15.5757 13.2768 15.9015 12.5031H16.6345C19.7294 12.5031 22.6612 13.399 25.3082 15.1501C27.3442 16.494 28.8102 18.2451 29.6246 20.3626C30.3169 22.073 30.2761 23.7426 29.5431 25.168C28.403 27.3262 26.4891 28.5072 23.9644 28.5072C22.3355 28.5072 20.7881 28.0185 19.9736 27.652C19.5257 28.0592 18.7112 28.7107 18.1411 29.1181C19.8922 29.9325 21.684 30.3805 23.3942 30.3805C27.3035 30.3805 30.1947 28.2221 31.2942 26.0638C32.4751 23.7018 32.3936 19.6296 29.3396 16.1682ZM8.65312 21.91C8.69387 23.1317 9.71187 24.109 10.9335 24.109H11.015C12.2774 24.0683 13.2546 23.0095 13.2139 21.7471C13.1732 20.5253 12.1551 19.5481 10.9335 19.5481H10.8521C10.7706 19.5481 10.6484 19.5481 10.5671 19.5887C8.8975 16.8196 8.20525 13.8062 8.44962 10.5483C8.61237 8.10496 9.42687 5.98733 10.8521 4.23621C12.033 2.72946 14.3134 1.99646 15.8609 1.95583C20.1772 1.87433 22.0096 7.24971 22.1319 9.40808C22.6612 9.53021 23.5571 9.81533 24.168 10.019C23.6792 3.42196 19.6071 0.00120544 15.698 0.00120544C12.033 0.00120544 8.65312 2.64821 7.30925 6.55758C5.43612 11.7701 6.65775 16.779 8.93812 20.7291C8.73462 21.0141 8.61237 21.462 8.65312 21.91Z" fill="#764ABC"/>
</g>
<defs>
<clipPath id="clip0_533_130">
<rect width="32" height="30.5024" fill="white"/>
</clipPath>
</defs>
</svg>
