<svg width="32" height="32" viewBox="0 0 32 32" fill="none" xmlns="http://www.w3.org/2000/svg">
<g clip-path="url(#clip0_531_72)">
<path d="M31.9939 15.6475C31.9069 10.2975 28.9239 5.08849 24.3089 2.34549C20.6729 0.0809937 16.0799 -0.528506 11.9429 0.516494C5.71644 2.08399 0.75244 7.72299 0.12144 14.15C-0.66256 20.22 2.40744 26.533 7.65394 29.646C12.7919 32.868 19.7804 32.7375 24.8039 29.346C29.3324 26.407 32.1409 21.046 31.9889 15.652L31.9939 15.6475ZM16.8849 29.625C9.61344 30.3435 2.58144 24.1825 2.38494 16.889C1.83494 10.9675 5.73744 5.11099 11.3109 3.15149C19.1269 0.0164936 28.7279 5.80749 29.5334 14.19C30.7964 21.722 24.5264 29.39 16.8849 29.625ZM12.0999 15.19L22.6149 6.58999L16.9329 15.2115C15.3219 15.2115 13.7109 15.212 12.0999 15.19ZM15.0564 16.78L19.8894 16.802L9.37444 25.4235L15.0564 16.78Z" fill="#010101"/>
</g>
<defs>
<clipPath id="clip0_531_72">
<rect width="32" height="32" fill="white"/>
</clipPath>
</defs>
</svg>
