<svg xmlns="http://www.w3.org/2000/svg" fill-rule="evenodd" stroke-linejoin="round" stroke-miterlimit="2" clip-rule="evenodd" viewBox="0 0 100 101" id="trading"><path d="M66.21 48.205V32.889h-6.255a3.92 3.92 0 0 1-3.075-6.351L71.805 7.653a3.92 3.92 0 0 1 6.151 0l14.925 18.885a3.92 3.92 0 0 1-3.075 6.351h-6.255v15.316C92.584 51.689 99 60.46 99 70.716c0 13.313-10.808 24.121-24.119 24.121-13.312 0-24.12-10.808-24.12-24.12 0-10.256 6.416-19.027 15.449-22.511Zm-49.761 4.589C7.416 49.31 1 40.54 1 30.283c0-13.312 10.808-24.12 24.119-24.12 13.312 0 24.12 10.808 24.12 24.12 0 10.257-6.416 19.027-15.449 22.511V68.11l6.255-.001a3.921 3.921 0 0 1 3.075 6.352L28.195 93.346a3.92 3.92 0 0 1-6.151 0L7.119 74.461a3.92 3.92 0 0 1 3.075-6.351h6.255V52.794Zm58.432 38.122c11.148 0 20.199-9.051 20.199-20.2 0-11.148-9.051-20.199-20.199-20.199-11.149 0-20.2 9.051-20.2 20.199 0 11.149 9.051 20.2 20.2 20.2ZM29.87 53.934a24.232 24.232 0 0 1-4.751.468 24.23 24.23 0 0 1-4.75-.468V72.03H10.194l14.925 18.886L40.045 72.03H29.87V53.934Zm43.051 4.698v-2.169a1.96 1.96 0 0 1 3.92 0v2.169h4.494a1.96 1.96 0 0 1 0 3.92h-4.494v6.406h.819c3.824 0 6.925 3.1 6.925 6.925v.396a6.926 6.926 0 0 1-6.925 6.925h-.819v1.766c0 1.081-.879 1.96-1.96 1.96a1.961 1.961 0 0 1-1.96-1.96v-1.766h-4.495a1.96 1.96 0 0 1 0-3.92h4.495v-6.406h-.82a6.925 6.925 0 0 1-6.925-6.925v-.396a6.926 6.926 0 0 1 6.925-6.925h.82Zm3.92 14.246v6.406h.819a3.006 3.006 0 0 0 3.005-3.005v-.396a3.005 3.005 0 0 0-3.005-3.005h-.819Zm-3.92-10.327h-.82a3.006 3.006 0 0 0-3.005 3.005v.397a3.005 3.005 0 0 0 3.005 3.004h.82v-6.406ZM25.119 10.082c11.149 0 20.2 9.051 20.2 20.2 0 11.148-9.051 20.199-20.2 20.199-11.148 0-20.199-9.051-20.199-20.199 0-11.149 9.051-20.2 20.199-20.2Zm54.512 36.982V28.968h10.175L74.881 10.082 59.955 28.968H70.13v18.096a24.232 24.232 0 0 1 4.751-.468c1.625 0 3.213.161 4.75.468ZM23.159 18.198v-2.169a1.96 1.96 0 0 1 3.92 0v2.169h4.495a1.96 1.96 0 0 1 0 3.92h-4.495v6.406h.82c3.824 0 6.925 3.1 6.925 6.924v.396a6.925 6.925 0 0 1-6.925 6.925h-.82v1.766a1.96 1.96 0 0 1-3.92 0v-1.766h-4.494a1.96 1.96 0 0 1 0-3.92h4.494v-6.405h-.819a6.926 6.926 0 0 1-6.925-6.925v-.396a6.925 6.925 0 0 1 6.925-6.925h.819Zm3.92 14.246v6.405h.82a3.005 3.005 0 0 0 3.005-3.005v-.396a3.005 3.005 0 0 0-3.005-3.004h-.82Zm-3.92-10.326h-.819a3.005 3.005 0 0 0-3.005 3.005v.396a3.006 3.006 0 0 0 3.005 3.005h.819v-6.406Z"></path></svg>