<svg width="24" height="24" viewBox="0 0 24 24" fill="none" xmlns="http://www.w3.org/2000/svg">
<path d="M20.3498 8.18398C20.3625 8.36923 20.3625 8.55448 20.3625 8.74123C20.3625 14.4345 16.0283 21 8.10377 21V20.9962C5.76302 21 3.47027 20.3287 1.49927 19.065C1.83977 19.1062 2.18177 19.1265 2.52452 19.1272C4.46477 19.1287 6.34877 18.4777 7.87577 17.2792C6.03227 17.244 4.41527 16.0425 3.85052 14.2875C4.49627 14.412 5.16152 14.3865 5.79602 14.2132C3.78602 13.8075 2.34002 12.0412 2.34002 9.98998V9.93523C2.93927 10.269 3.60977 10.4542 4.29527 10.4745C2.40227 9.20923 1.81877 6.69073 2.96177 4.72198C5.14952 7.41373 8.37677 9.05023 11.841 9.22348C11.4938 7.72723 11.9678 6.15898 13.0875 5.10673C14.823 3.47548 17.5523 3.55948 19.1835 5.29348C20.1488 5.10298 21.0735 4.74898 21.9195 4.24723C21.5978 5.24473 20.925 6.09148 20.0258 6.62998C20.88 6.52948 21.714 6.30073 22.5 5.95198C21.9218 6.81898 21.1928 7.57348 20.3498 8.18398V8.18398Z" fill="white"/>
</svg>
