<svg width="462" height="462" viewBox="0 0 462 462" fill="none" xmlns="http://www.w3.org/2000/svg">
<g clip-path="url(#clip0_526_24)">
<path d="M230.656 156.416C189.696 156.416 156.416 189.696 156.416 230.656C156.416 271.616 189.696 304.896 230.656 304.896C271.616 304.896 304.896 271.616 304.896 230.656C304.896 189.696 271.616 156.416 230.656 156.416ZM225.024 208.64C215.808 208.64 208.128 216.32 208.128 225.536H183.552C184.064 202.496 202.496 184.064 225.024 184.064V208.64Z" fill="white"/>
<path d="M455.936 215.296C430.848 184.064 341.248 82.176 230.656 82.176C120.064 82.176 30.464 184.064 5.376 215.296C-1.792 224 -1.792 236.8 5.376 246.016C30.464 277.248 120.064 379.136 230.656 379.136C341.248 379.136 430.848 277.248 455.936 246.016C463.104 237.312 463.104 224.512 455.936 215.296ZM230.656 338.176C171.264 338.176 123.136 290.048 123.136 230.656C123.136 171.264 171.264 123.136 230.656 123.136C290.048 123.136 338.176 171.264 338.176 230.656C338.176 290.048 290.048 338.176 230.656 338.176Z" fill="white"/>
</g>
<defs>
<clipPath id="clip0_526_24">
<rect width="461.312" height="461.312" fill="white"/>
</clipPath>
</defs>
</svg>
